<svg id="visual" viewBox="0 0 900 600" width="900" height="600" xmlns="http://www.w3.org/2000/svg" xmlns:xlink="http://www.w3.org/1999/xlink" version="1.1"><rect x="0" y="0" width="900" height="600" fill="#ffffff"></rect><path d="M0 478L21.5 471.2C43 464.3 86 450.7 128.8 437.7C171.7 424.7 214.3 412.3 257.2 422.2C300 432 343 464 385.8 460.3C428.7 456.7 471.3 417.3 514.2 408.3C557 399.3 600 420.7 642.8 437.7C685.7 454.7 728.3 467.3 771.2 460.8C814 454.3 857 428.7 878.5 415.8L900 403L900 601L878.5 601C857 601 814 601 771.2 601C728.3 601 685.7 601 642.8 601C600 601 557 601 514.2 601C471.3 601 428.7 601 385.8 601C343 601 300 601 257.2 601C214.3 601 171.7 601 128.8 601C86 601 43 601 21.5 601L0 601Z" fill="#fcd34d" stroke-linecap="round" stroke-linejoin="miter"></path></svg>