<svg xmlns="http://www.w3.org/2000/svg" viewBox="0 0 750 500"><g id="freepik--background-complete--inject-7"><path d="M677.37,294.22l-13.12.28-6.66.11c-2.23.05-4.47,0-6.7.06h-.44v-.45L650.39,283v-.5h.5l13.24.06c4.42,0,8.83.11,13.24.16h.28V283c0,1.9-.08,3.79-.13,5.66Zm0,0-.14-5.65c-.05-1.86-.11-3.7-.13-5.54l.27.28c-4.41.05-8.82.16-13.24.16l-13.24.06.5-.5,0,11.19-.45-.44c2.18,0,4.36,0,6.55.05L664,294Z" style="fill:#ebebeb"></path><path d="M662.6,308.33l-13.12.28-6.67.11c-2.22,0-4.46,0-6.69.06h-.44v-.45l0-11.19v-.5h.5l13.24.07c4.41,0,8.83.11,13.24.16h.28v.27c0,1.9-.08,3.79-.13,5.66Zm0,0-.14-5.65c-.05-1.86-.11-3.7-.13-5.54l.27.28c-4.41.05-8.83.16-13.24.16l-13.24.06.5-.5,0,11.19-.45-.44c2.18,0,4.36,0,6.55.05l6.57.12Z" style="fill:#ebebeb"></path><path d="M692.14,308.33l-13.12.28-6.66.11c-2.23,0-4.47,0-6.7.06h-.44v-.45l-.06-11.19v-.5h.5l13.24.07c4.42,0,8.83.11,13.24.16h.28v.27c0,1.9-.09,3.79-.13,5.66Zm0,0-.14-5.65c0-1.86-.11-3.7-.13-5.54l.27.28c-4.41.05-8.82.16-13.24.16l-13.24.06.5-.5,0,11.19-.45-.44c2.19,0,4.36,0,6.55.05l6.58.12Z" style="fill:#ebebeb"></path><path d="M329.79,161.07l-13.12.28-6.66.11c-2.23,0-4.47,0-6.7,0h-.44v-.45l-.06-11.19v-.5h.5l13.24.06c4.42,0,8.83.11,13.24.16h.28v.27c0,1.9-.09,3.78-.14,5.65Zm0,0-.14-5.66c0-1.86-.11-3.7-.13-5.53l.27.27c-4.41,0-8.82.16-13.24.16l-13.24.07.5-.5-.05,11.19-.45-.45c2.18,0,4.36,0,6.55.06l6.58.11Z" style="fill:#ebebeb"></path><path d="M315,175.18l-13.12.28-6.67.11c-2.22,0-4.46,0-6.69.05h-.44v-.45L288,164v-.5h.5l13.24.06c4.41,0,8.83.11,13.24.16h.28V164c0,1.9-.08,3.78-.13,5.65Zm0,0-.14-5.66c-.05-1.86-.11-3.7-.13-5.53l.27.27c-4.41.05-8.83.16-13.24.16l-13.24.07.5-.5L289,175.18l-.45-.45c2.18,0,4.36,0,6.55.06l6.57.11Z" style="fill:#ebebeb"></path><path d="M344.56,175.18l-13.12.28-6.66.11c-2.23,0-4.46,0-6.7.05h-.44v-.45L317.58,164v-.5h.5l13.24.06c4.42,0,8.83.11,13.24.16h.28V164c0,1.9-.09,3.78-.13,5.65Zm0,0-.14-5.66c0-1.86-.11-3.7-.13-5.53l.27.27c-4.41.05-8.82.16-13.24.16l-13.24.07.5-.5-.05,11.19-.45-.45c2.19,0,4.36,0,6.55.06l6.58.11Z" style="fill:#ebebeb"></path><path d="M113.88,235.11l-13.12.28-6.67.11c-2.22,0-4.46,0-6.69.05H87v-.45l0-11.19v-.5h.5l13.24.06c4.41,0,8.83.11,13.24.16h.28v.27c0,1.9-.08,3.78-.13,5.65Zm0,0-.14-5.66c0-1.86-.11-3.7-.13-5.53l.27.27c-4.41.05-8.83.16-13.24.16l-13.24.07.5-.5-.05,11.19-.45-.45c2.18,0,4.36,0,6.55.06l6.57.11Z" style="fill:#ebebeb"></path><path d="M552.86,161.06l-13.12.28-6.66.11c-2.23.05-4.47,0-6.7.05h-.44v-.45l-.06-11.19v-.5h.5l13.24.06c4.42,0,8.83.12,13.24.17h.28v.27c0,1.9-.08,3.79-.13,5.65Zm0,0-.14-5.65c-.05-1.87-.11-3.71-.13-5.54l.27.27c-4.41.05-8.82.16-13.24.17l-13.24.06.5-.5,0,11.19-.45-.45c2.18,0,4.36,0,6.55.06l6.58.11Z" style="fill:#ebebeb"></path><path d="M675.84,52.38l-13.12.28-6.67.11c-2.22,0-4.46,0-6.69.06h-.44v-.45l0-11.19v-.5h.5l13.24.06c4.41,0,8.83.12,13.24.17h.28v.27c0,1.9-.08,3.79-.13,5.65Zm0,0-.14-5.65c-.05-1.87-.11-3.71-.13-5.54l.27.27c-4.41,0-8.83.16-13.24.17l-13.24.06.5-.5-.05,11.19-.45-.45c2.18,0,4.36,0,6.55.06l6.57.11Z" style="fill:#ebebeb"></path><path d="M690.61,66.49l-13.12.28-6.66.11c-2.23.05-4.47,0-6.7.05h-.44v-.45l-.06-11.19v-.5h.5l13.24.06c4.42,0,8.83.12,13.24.17h.28v.27c0,1.9-.09,3.79-.14,5.65Zm0,0-.14-5.65c0-1.87-.11-3.71-.13-5.54l.27.27c-4.41,0-8.82.16-13.24.17l-13.24.06.5-.5,0,11.19-.45-.45c2.18,0,4.36,0,6.55.06l6.58.11Z" style="fill:#ebebeb"></path><path d="M84.34,52.39l-13.13.28-6.66.11c-2.22,0-4.46,0-6.69.06h-.45v-.45l0-11.19v-.5h.51l13.24.07c4.41,0,8.82.11,13.24.16h.27v.27c0,1.9-.09,3.79-.13,5.66Zm0,0-.15-5.65c0-1.87-.11-3.71-.13-5.54l.28.27c-4.42.06-8.83.16-13.24.17l-13.24.06.5-.5L58.3,52.39,57.86,52c2.18,0,4.35,0,6.54,0l6.58.11Z" style="fill:#ebebeb"></path><rect x="235.22" width="1" height="37.56" style="fill:#c7c7c7"></rect><polygon points="258.93 59.92 257.06 64.03 214.38 64.03 212.52 59.92 230.69 47.35 240.76 47.35 258.93 59.92" style="fill:#ebebeb"></polygon><polygon points="242.02 35.23 240.76 47.35 230.69 47.35 229.43 35.23 242.02 35.23" style="fill:#dbdbdb"></polygon><polygon points="258.93 59.93 257.06 64.03 214.38 64.03 212.51 59.93 258.93 59.93" style="fill:#dbdbdb"></polygon><rect x="328.08" width="1" height="37.56" style="fill:#c7c7c7"></rect><polygon points="351.78 59.92 349.92 64.03 307.23 64.03 305.37 59.92 323.54 47.35 333.61 47.35 351.78 59.92" style="fill:#ebebeb"></polygon><polygon points="334.87 35.23 333.61 47.35 323.54 47.35 322.28 35.23 334.87 35.23" style="fill:#dbdbdb"></polygon><polygon points="351.78 59.93 349.91 64.03 307.23 64.03 305.37 59.93 351.78 59.93" style="fill:#dbdbdb"></polygon><rect x="420.93" width="1" height="37.56" style="fill:#c7c7c7"></rect><polygon points="444.63 59.92 442.77 64.03 400.08 64.03 398.22 59.92 416.39 47.35 426.46 47.35 444.63 59.92" style="fill:#ebebeb"></polygon><polygon points="427.72 35.23 426.46 47.35 416.39 47.35 415.13 35.23 427.72 35.23" style="fill:#dbdbdb"></polygon><polygon points="444.63 59.93 442.76 64.03 400.08 64.03 398.22 59.93 444.63 59.93" style="fill:#dbdbdb"></polygon><rect x="513.78" width="1" height="37.56" style="fill:#c7c7c7"></rect><polygon points="537.49 59.92 535.62 64.03 492.93 64.03 491.07 59.92 509.25 47.35 519.31 47.35 537.49 59.92" style="fill:#ebebeb"></polygon><polygon points="520.57 35.23 519.31 47.35 509.25 47.35 507.98 35.23 520.57 35.23" style="fill:#dbdbdb"></polygon><polygon points="537.48 59.93 535.62 64.03 492.93 64.03 491.07 59.93 537.48 59.93" style="fill:#dbdbdb"></polygon><rect x="50.72" y="81.09" width="53.71" height="65.14" style="fill:#ebebeb"></rect><rect x="56.86" y="87.04" width="41.43" height="53.25" style="fill:#fff"></rect><rect x="56.86" y="87.04" width="1.62" height="53.25" style="fill:#dbdbdb"></rect><rect x="104.43" y="81.09" width="1.62" height="65.14" style="fill:#dbdbdb"></rect><rect x="72.69" y="99.11" width="9.77" height="29.11" style="fill:#dbdbdb"></rect><path d="M91.1,121.3h-27V106H91.1Zm-26-1h25V107h-25Z" style="fill:#ebebeb"></path><rect x="75.96" y="161.93" width="53.71" height="65.14" style="fill:#ebebeb"></rect><rect x="82.1" y="167.88" width="41.43" height="53.25" style="fill:#fff"></rect><rect x="82.1" y="167.88" width="1.62" height="53.25" style="fill:#dbdbdb"></rect><rect x="129.67" y="161.93" width="1.62" height="65.14" style="fill:#dbdbdb"></rect><rect x="98.81" y="181.64" width="8.37" height="21.16" style="fill:#ebebeb"></rect><path d="M114.56,209.59H91.08V194h23.48Zm-22.48-1h21.48V195H92.08Z" style="fill:#dbdbdb"></path><rect x="546.74" y="161.04" width="152.54" height="6.69" transform="translate(1246.02 328.76) rotate(180)" style="fill:#ebebeb"></rect><rect x="684.04" y="167.73" width="6.69" height="22.12" style="fill:#ebebeb"></rect><rect x="684.04" y="167.73" width="6.69" height="6.84" style="fill:#dbdbdb"></rect><rect x="555.29" y="167.73" width="6.69" height="22.12" style="fill:#ebebeb"></rect><rect x="555.29" y="167.73" width="6.69" height="6.84" style="fill:#dbdbdb"></rect><rect x="644.12" y="134.35" width="42.63" height="10.74" transform="translate(805.16 -525.72) rotate(90)" style="fill:#c7c7c7"></rect><rect x="663.1" y="113.1" width="4.68" height="10.74" transform="translate(783.91 -546.97) rotate(90)" style="fill:#dbdbdb"></rect><rect x="664.57" y="122.31" width="1.74" height="10.74" transform="translate(793.12 -537.76) rotate(90)" style="fill:#dbdbdb"></rect><rect x="662.43" y="147.07" width="4.68" height="12.07" transform="translate(817.87 -511.67) rotate(90)" style="fill:#dbdbdb"></rect><rect x="631.45" y="132.42" width="49.73" height="7.5" transform="translate(792.49 -520.15) rotate(90)" style="fill:#dbdbdb"></rect><rect x="646.79" y="123.29" width="19.13" height="4.5" transform="translate(781.9 -530.81) rotate(90)" style="fill:#ebebeb"></rect><rect x="594.64" y="137.15" width="49.73" height="7.5" transform="translate(1159.16 -194.39) rotate(135.33)" style="fill:#c7c7c7"></rect><rect x="607.35" y="141.18" width="19.13" height="4.5" transform="translate(1156.5 -188.22) rotate(135.33)" style="fill:#dbdbdb"></rect><rect x="627.32" y="135.79" width="37.77" height="12.74" transform="translate(788.36 -504.04) rotate(90)" style="fill:#a6a6a6"></rect><rect x="644.44" y="148.91" width="3.52" height="12.74" transform="translate(801.48 -490.92) rotate(90)" style="fill:#c7c7c7"></rect><rect x="645.52" y="144.16" width="1.37" height="12.74" transform="translate(796.73 -495.68) rotate(90)" style="fill:#c7c7c7"></rect><rect x="657.46" y="138.89" width="35.5" height="8.8" transform="translate(818.5 -531.91) rotate(90)" style="fill:#a6a6a6"></rect><rect x="673.55" y="151.23" width="3.31" height="8.8" transform="translate(830.84 -519.58) rotate(90)" style="fill:#c7c7c7"></rect><rect x="673.55" y="130.12" width="3.31" height="8.8" transform="translate(809.73 -540.69) rotate(90)" style="fill:#c7c7c7"></rect><rect x="674.57" y="134.68" width="1.28" height="8.8" transform="translate(814.29 -536.13) rotate(90)" style="fill:#c7c7c7"></rect><path d="M577.59,115.56c7.5,7.35,8.77,18.73,7.18,28.69,0,.22-.39.16-.39-.05,0-2.27.07-4.52.06-6.76l-.11-.3a15,15,0,0,1-4.88-5.24c-1.25-2.47-1.75-5.25-2.71-7.82-.09-.25.18-.18.35,0,4.57,3.37,6,7,7.33,11.84a40.33,40.33,0,0,0-.79-7.55,25.76,25.76,0,0,0-6.24-12.56A.14.14,0,0,1,577.59,115.56Z" style="fill:#a6a6a6"></path><path d="M576.17,116.42c-1.29,0-2.1,2.11-3.1,2.71a1,1,0,0,1-1.43-.22c-1-1.4.37-3.12,1.66-4.08a14.44,14.44,0,0,1-2.68,1.24.94.94,0,0,1-1.21-.73c-.43-1.9,2-2.74,3.58-2.78-.79-.55-3.06-2-1.85-2.78s3.88,1.4,4.75,2.1c1.28,1,2.8,2.59,2.86,4.21C578.82,118,577.17,116.81,576.17,116.42Z" style="fill:#dbdbdb"></path><path d="M576.55,116.74c-1.65-.75-4.83.33-5.1-.3-.54-1.27,2-2.14,3.36-2.31-1.26-.34-3.67-.89-3.6-2.1.09-1.49,3.7-.21,5.53,1.19,2.31,1.77,2.29,3.47,1.91,3.81S576.82,116.86,576.55,116.74Z" style="fill:#ebebeb"></path><path d="M594.69,114.83c-7.79,7.06-9.48,18.38-8.28,28.4,0,.22.39.17.4,0,.08-2.26.1-4.51.19-6.75,0-.1.08-.2.13-.3a15.12,15.12,0,0,0,5.07-5c1.35-2.42,1.95-5.18,3-7.71.1-.25-.16-.19-.34-.06-4.69,3.19-6.28,6.75-7.78,11.55a41.08,41.08,0,0,1,1.08-7.51A25.68,25.68,0,0,1,594.88,115C595,114.91,594.82,114.71,594.69,114.83Z" style="fill:#a6a6a6"></path><path d="M596.06,115.74c1.29.1,2,2.19,3,2.83a1,1,0,0,0,1.43-.17c1-1.35-.25-3.12-1.5-4.13a13.82,13.82,0,0,0,2.63,1.33.92.92,0,0,0,1.23-.67c.51-1.88-1.84-2.82-3.47-2.92.81-.52,3.14-1.93,2-2.71s-3.93,1.25-4.83,1.92c-1.31,1-2.89,2.48-3,4.1C593.36,117.2,595.06,116.1,596.06,115.74Z" style="fill:#dbdbdb"></path><path d="M595.68,116.05c1.68-.69,4.81.51,5.1-.1.6-1.25-1.91-2.22-3.27-2.44,1.28-.3,3.71-.75,3.68-2,0-1.48-3.69-.34-5.57,1-2.37,1.67-2.42,3.38-2,3.73S595.4,116.16,595.68,116.05Z" style="fill:#ebebeb"></path><path d="M586.73,133.48a77,77,0,0,1-2.42,11.16.28.28,0,0,1-.54-.11c.51-3.44,1.44-6.81,2-10.25a51.56,51.56,0,0,0,.6-10.53c-.33-5.8-1.9-12-5.69-16.5-.08-.11.1-.26.18-.16,7.58,8.83,6.37,19.65,6.37,20.62,1.07-3.65,2.17-7.84,6.23-11.56.17-.16.31-.09.28.18-.73,6.79-2.61,10.33-6.54,14C587,131.35,586.9,132.42,586.73,133.48Z" style="fill:#a6a6a6"></path><path d="M580.57,108.26c-1.37-.6-3.25,1.13-4.59,1.25a1.11,1.11,0,0,1-1.37-1c-.33-2,1.95-3,3.77-3.39a16.08,16.08,0,0,1-3.4-.07,1.08,1.08,0,0,1-.89-1.36c.51-2.19,3.4-1.86,5.12-1.08-.55-1-2.15-3.67-.53-3.83s3.33,3.41,3.87,4.58c.81,1.72,1.61,4.09.85,5.8C582.53,111.21,581.4,109.17,580.57,108.26Z" style="fill:#dbdbdb"></path><path d="M580.79,108.78c-1.33-1.61-5.17-2.08-5.13-2.87.07-1.59,3.14-1.22,4.64-.71-1.13-1-3.36-2.77-2.67-4,.84-1.5,3.94,1.65,5.14,4,1.5,3,.62,4.76.06,4.92C582.05,110.37,581,109.05,580.79,108.78Z" style="fill:#ebebeb"></path><path d="M591.71,135.52,595.05,161H574.73c.41-2.26,4.2-25.55,4.2-25.55Z" style="fill:#dbdbdb"></path></g><g id="freepik--Plant--inject-7"><path d="M91,341.05a72.35,72.35,0,0,1,3.25,12.82c-.11.22,0,1,.09.8.08.71,1.15.5,1.1-.2,0-.46-.09-.92-.14-1.36,2.3-3.34,5.84-5.61,8.62-8.56a17.27,17.27,0,0,0,4.46-8.4c1.84-8.69-1.14-17.55,1.21-26.26,2-7.51,6.16-14.21,9.56-21.13,3.59-7.31,6.07-14.91,5.77-23.15-.22-6.31-1.58-14.64-6.72-19-5.45-4.63-11.47-.42-15,4.33-10.33,13.77-14.35,30.5-15.23,47.38-.49,9.35-1,18.75,0,28.07A75.46,75.46,0,0,0,91,341.05Z" style="fill:#FFC727"></path><path d="M94.4,357.27A159,159,0,0,1,92.78,331a.23.23,0,0,1,0-.1c-.66-7.07-1.74-14.09-2-21.21a125.84,125.84,0,0,1,1.45-23,.07.07,0,0,1,.14,0,149.08,149.08,0,0,0-.84,22.46q.23,6,1,12c.17,1.3.38,2.6.56,3.9h0a140.63,140.63,0,0,1,17-57.35c.13-.24.56,0,.43.22a146.06,146.06,0,0,0-14.13,42.64c4.69-10.45,12.27-19.31,17.64-29.41,0-.05.12,0,.1.05-4.67,11.15-13.07,20.29-18,31.3-.68,4.39-1.18,8.8-1.47,13.23a147.84,147.84,0,0,0,0,18.23c2.85-6.41,5.85-12.57,8.07-19.3.06-.18.32-.08.28.1-1.81,6.95-4.36,14.49-8.26,20.59q.43,6.44,1.3,12.85c1.51,11.4,4.3,22.55,6,33.9a.26.26,0,0,1-.52.09A263,263,0,0,1,94.4,357.27Z" style="fill:#263238"></path><path d="M100.08,268.09c0-.08.15,0,.13.05-1.67,5.93-2.42,11.88-3.5,17.92a.22.22,0,0,1-.43,0C96.45,280,98.16,273.8,100.08,268.09Z" style="fill:#263238"></path><path d="M48.76,296.22a86.18,86.18,0,0,0,5.53,9.53c4.27,6.56,8.65,12.54,9.95,20.45.58,3.53,1,7.09,2.29,10.44a31.66,31.66,0,0,0,4.81,7.95c4.51,5.64,10,10.39,14.22,16.28A72.76,72.76,0,0,1,95.7,381c.12.4.75.24.62-.15l0-.09a.08.08,0,0,0,0-.09c-.65-17.11-3.27-34.22-9.68-50.19A174.64,174.64,0,0,0,76.82,310c-3.22-5.72-7.12-11.17-12.34-15.24-3.38-2.63-10.67-7.55-15-4.35C47.42,292,47.75,294.15,48.76,296.22Z" style="fill:#FFC727"></path><path d="M68.75,333.66a141,141,0,0,0,11,13.54c1.81,2,3.64,4.05,5.45,6.09.86,1,1.8,1.92,2.6,3-.58-1.76-1.15-3.53-1.74-5.29-2.84-8.46-5.59-17-9.48-25.06A173.88,173.88,0,0,0,63,303.53c-.13-.19.18-.35.31-.17,4,5.67,8.14,11.32,11.63,17.36a95.15,95.15,0,0,1,5.16,10.42,165.35,165.35,0,0,0-7.51-22.53c0-.07.07-.13.1-.06A78.75,78.75,0,0,1,80.48,332s0,0,0,0c.9,2.16,1.74,4.35,2.54,6.56C86.4,348,89.47,357.42,92.37,367a103.37,103.37,0,0,0-3-18.87.11.11,0,0,1,.22-.05,60.06,60.06,0,0,1,3.12,19.89q1.65,5.43,3.23,10.88c2.26,7.75,4.91,15.61,6.47,23.53a.16.16,0,0,1-.31.07c-1.49-4.22-2.52-8.63-3.8-12.92s-2.59-8.6-3.93-12.89q-2.92-9.36-6-18.67c-1.23-2.25-3.42-4.16-5.1-6-1.83-2-3.67-4-5.47-6.07a96.79,96.79,0,0,1-9.14-12.11C68.55,333.65,68.69,333.58,68.75,333.66Z" style="fill:#263238"></path><path d="M67.49,326.42a89.12,89.12,0,0,1,10.84,14.71c0,.07-.06.15-.11.08-3.65-4.88-7.24-9.8-10.87-14.69C67.28,326.44,67.42,326.34,67.49,326.42Z" style="fill:#263238"></path><path d="M139.05,305.87c-1.94,4-4.12,8.74-2.84,13.24.82,2.85,3.11,5.05,3.71,8,1.33,6.46-4.85,11.25-9.33,14.67-11.16,8.56-26.73,16.59-27.71,32.46,0,.56-1,.49-1-.06a.21.21,0,0,1,0-.11s-.06,0-.06-.08a60.41,60.41,0,0,1-1.54-24c1.15-8.23,4.15-15.76,7.8-23.18,6.17-12.55,12.74-25.42,22.73-35.42,2.77-2.77,8.48-7.8,11.25-2.22S141.42,301,139.05,305.87Z" style="fill:#FFC727"></path><path d="M130.19,332.18c-7.16,9-19.17,14.6-25.17,24.52,2.91-14.74,8.52-28.21,17.78-40.23a.31.31,0,0,0-.46-.4,76.49,76.49,0,0,0-15.06,25.63,109.57,109.57,0,0,1,5.9-19.08c.09-.23-.25-.41-.36-.17a70.75,70.75,0,0,0-6.29,21.42c-7.25,22-6.23,47.08-2.74,69.43,0,.32.54.3.51,0-1.81-17.69-2.84-35.75.14-53.37.06-.37.13-.73.2-1.1,6.53-10.68,18.49-16.29,25.69-26.5C130.4,332.2,130.27,332.08,130.19,332.18Z" style="fill:#263238"></path><path d="M131.46,324.82c-3.8,4-7.54,8.16-11.35,12.2,0,0,0,.11.06.08A59.75,59.75,0,0,0,131.72,325,.17.17,0,1,0,131.46,324.82Z" style="fill:#263238"></path><path d="M130.92,308.55a128.45,128.45,0,0,1-11,17.69c0,.07,0,.16.11.09a59.08,59.08,0,0,0,11.09-17.67A.12.12,0,0,0,130.92,308.55Z" style="fill:#263238"></path><polygon points="119.92 434.96 81.22 434.96 86.44 382.89 113.96 382.89 119.92 434.96" style="fill:#455a64"></polygon><polygon points="114.93 391.35 85.58 391.35 86.43 382.89 113.96 382.89 114.93 391.35" style="fill:#263238"></polygon><rect x="82.43" y="377.12" width="36.27" height="8.31" style="fill:#455a64"></rect></g><g id="freepik--Screen--inject-7"><rect x="146.55" y="72.27" width="457.35" height="346.57" style="fill:#fff"></rect><path d="M603.9,418.83l-457.35.37h-.37v-.37l-.13-346.56v-.5h.5L603.9,72h.31v.31Zm0,0-.31-346.56.31.31-457.35.18.5-.49-.13,346.56-.37-.37Z" style="fill:#c7c7c7"></path><rect x="146.55" y="72.27" width="457.35" height="13.34" style="fill:#455a64"></rect><path d="M156,78.93a2.36,2.36,0,1,1-2.36-2.35A2.35,2.35,0,0,1,156,78.93Z" style="fill:#c7c7c7"></path><path d="M165.61,78.93a2.36,2.36,0,1,1-2.36-2.35A2.36,2.36,0,0,1,165.61,78.93Z" style="fill:#fff"></path><circle cx="172.87" cy="78.93" r="2.36" style="fill:#FFC727"></circle><rect x="594.19" y="85.6" width="9.72" height="333.23" style="fill:#dbdbdb"></rect><path d="M599,201.13h0a2.51,2.51,0,0,1-2.51-2.51V90.06A2.51,2.51,0,0,1,599,87.55h0a2.52,2.52,0,0,1,2.51,2.51V198.62A2.51,2.51,0,0,1,599,201.13Z" style="fill:#a6a6a6"></path><rect x="146.55" y="85.6" width="447.63" height="87.26" style="fill:#ebebeb"></rect><path d="M542.09,109.1a14,14,0,1,0,11-11A14,14,0,0,0,542.09,109.1Z" style="fill:#fff"></path><rect x="146.55" y="158.11" width="447.63" height="14.75" style="fill:#dbdbdb"></rect><polygon points="559.1 158.11 491.07 118.02 429.24 149.88 390.67 135.49 332.39 158.11 559.1 158.11" style="fill:#dbdbdb"></polygon><path d="M477.85,110.72H421.42s5.6-15.28,14.21-15.28S446.94,106,446.94,106s5.81-5.73,10.58-5.73,8.92,7.58,8.92,7.58S473.18,103.75,477.85,110.72Z" style="fill:#fff;opacity:0.6000000000000001"></path><path d="M338,142.51H281.33s5.62-15.33,14.26-15.33,11.35,10.58,11.35,10.58,5.83-5.75,10.62-5.75,8.95,7.6,8.95,7.6S333.28,135.52,338,142.51Z" style="fill:#fff;opacity:0.6000000000000001"></path><path d="M305,116.1H278.65s5.89-8.53,10.53-8.53,6,5.69,6,5.69,3.27-2.66,6.31-2.18S305,116.1,305,116.1Z" style="fill:#fff;opacity:0.6000000000000001"></path><path d="M410.58,120.78H384.21s5.89-8.54,10.53-8.54,6,5.69,6,5.69,3.28-2.65,6.32-2.18S410.58,120.78,410.58,120.78Z" style="fill:#fff"></path><rect x="146.1" y="172.82" width="138.68" height="246.01" style="fill:#FFC727"></rect><rect x="157.58" y="295.63" width="115.72" height="14.3" style="opacity:0.1"></rect><rect x="157.58" y="295.63" width="2.09" height="14.3" style="fill:#fff"></rect><path d="M169.76,214.88v-6.47a.61.61,0,0,1,1.22,0v5.86h3a.61.61,0,1,1,0,1.21h-3.58A.6.6,0,0,1,169.76,214.88Z" style="fill:#fff"></path><path d="M176.22,214.68a2.69,2.69,0,0,1-.76-1.93,2.81,2.81,0,0,1,.76-1.92,2.57,2.57,0,0,1,1.88-.83,2.43,2.43,0,0,1,1.83.83,2.73,2.73,0,0,1,.77,1.92,2.62,2.62,0,0,1-.77,1.93,2.4,2.4,0,0,1-1.83.84A2.54,2.54,0,0,1,176.22,214.68Zm.43-1.93a1.77,1.77,0,0,0,.4,1.16,1.46,1.46,0,0,0,1,.41,1.4,1.4,0,0,0,1-.41,1.75,1.75,0,0,0,0-2.3,1.54,1.54,0,0,0-1-.42,1.6,1.6,0,0,0-1,.42A1.76,1.76,0,0,0,176.65,212.75Z" style="fill:#fff"></path><path d="M185.73,210.58a.58.58,0,0,1-.58.58,1.08,1.08,0,0,0-.66.21,1.59,1.59,0,0,0-.5.53,3,3,0,0,0-.45.92v2.08a.6.6,0,0,1-.61.58.58.58,0,0,1-.58-.58v-4.32a.57.57,0,0,1,.58-.57.59.59,0,0,1,.61.57v.08a1,1,0,0,1,.23-.22,2.41,2.41,0,0,1,1.38-.43A.57.57,0,0,1,185.73,210.58Z" style="fill:#fff"></path><path d="M186.24,212.74a2.71,2.71,0,0,1,2.67-2.74,2.62,2.62,0,0,1,2.65,2.54v.06a.34.34,0,0,1,0,.1.54.54,0,0,1-.57.44h-3.49a1.39,1.39,0,0,0,.37.72,1.7,1.7,0,0,0,1,.49,1.72,1.72,0,0,0,1.14-.27.63.63,0,0,1,.83,0,.5.5,0,0,1,0,.71,2.8,2.8,0,0,1-2,.72A2.72,2.72,0,0,1,186.24,212.74Zm1.19-.54h3.11a1.8,1.8,0,0,0-1.63-1.16A1.53,1.53,0,0,0,187.43,212.2Z" style="fill:#fff"></path><path d="M197.88,212.28v2.62a.57.57,0,0,1-.57.58.59.59,0,0,1-.58-.58v-2.62a1.13,1.13,0,0,0-1.14-1.11,1.1,1.1,0,0,0-1.1,1.11v2.62a.22.22,0,0,1,0,.11.6.6,0,0,1-.58.47.57.57,0,0,1-.58-.58v-4.32a.58.58,0,0,1,1.11-.24,2.2,2.2,0,0,1,1.17-.34A2.29,2.29,0,0,1,197.88,212.28Z" style="fill:#fff"></path><path d="M203.11,211.53a4,4,0,0,1,4-3.95,4.1,4.1,0,0,1,2.54.86.66.66,0,0,1,.11.88.65.65,0,0,1-.88.12,2.71,2.71,0,0,0-1.77-.6,2.86,2.86,0,0,0-2,.79,2.66,2.66,0,0,0-.8,1.9,2.63,2.63,0,0,0,.8,1.91,2.86,2.86,0,0,0,2,.79,2.78,2.78,0,0,0,1.77-.6.63.63,0,0,1,.77,1,4.09,4.09,0,0,1-2.54.85A4,4,0,0,1,203.11,211.53Z" style="fill:#fff"></path><path d="M212.18,214.68a2.73,2.73,0,0,1-.75-1.93,2.85,2.85,0,0,1,.75-1.92,2.59,2.59,0,0,1,1.89-.83,2.44,2.44,0,0,1,1.83.83,2.73,2.73,0,0,1,.77,1.92,2.62,2.62,0,0,1-.77,1.93,2.42,2.42,0,0,1-1.83.84A2.56,2.56,0,0,1,212.18,214.68Zm.44-1.93a1.72,1.72,0,0,0,.4,1.16,1.5,1.5,0,0,0,2.06,0,1.75,1.75,0,0,0,0-2.3,1.47,1.47,0,0,0-2.06,0A1.7,1.7,0,0,0,212.62,212.75Z" style="fill:#fff"></path><path d="M219,214.68a2.73,2.73,0,0,1-.75-1.93,2.85,2.85,0,0,1,.75-1.92,2.59,2.59,0,0,1,1.89-.83,2.44,2.44,0,0,1,1.83.83,2.78,2.78,0,0,1,.77,1.92,2.66,2.66,0,0,1-.77,1.93,2.42,2.42,0,0,1-1.83.84A2.56,2.56,0,0,1,219,214.68Zm.44-1.93a1.72,1.72,0,0,0,.4,1.16,1.5,1.5,0,0,0,2.06,0,1.75,1.75,0,0,0,0-2.3,1.47,1.47,0,0,0-2.06,0A1.7,1.7,0,0,0,219.48,212.75Z" style="fill:#fff"></path><path d="M225.4,217v-4.19h0v-2.17A.58.58,0,0,1,226,210a.59.59,0,0,1,.6.45,2.81,2.81,0,0,1,1.49-.45,2.72,2.72,0,0,1,2.66,2.75,2.69,2.69,0,0,1-2.66,2.72,2.53,2.53,0,0,1-1.47-.45V217a.62.62,0,0,1-.62.6A.6.6,0,0,1,225.4,217Zm1.2-4.2a1.48,1.48,0,0,0,.43,1.1,1.36,1.36,0,0,0,1,.46,1.41,1.41,0,0,0,1-.46,1.6,1.6,0,0,0,.42-1.1,1.71,1.71,0,0,0-.42-1.11,1.47,1.47,0,0,0-1-.45,1.42,1.42,0,0,0-1,.45A1.57,1.57,0,0,0,226.6,212.75Z" style="fill:#fff"></path><path d="M232.15,212.74a2.71,2.71,0,0,1,2.67-2.74,2.62,2.62,0,0,1,2.65,2.54v.06a.34.34,0,0,1,0,.1.54.54,0,0,1-.57.44H233.4a1.39,1.39,0,0,0,.37.72,1.7,1.7,0,0,0,1,.49,1.72,1.72,0,0,0,1.14-.27.63.63,0,0,1,.83,0,.5.5,0,0,1,0,.71,2.8,2.8,0,0,1-2,.72A2.72,2.72,0,0,1,232.15,212.74Zm1.19-.54h3.11a1.8,1.8,0,0,0-1.63-1.16A1.53,1.53,0,0,0,233.34,212.2Z" style="fill:#fff"></path><path d="M242.36,210.58a.58.58,0,0,1-.58.58,1.08,1.08,0,0,0-.66.21,1.69,1.69,0,0,0-.5.53,3.22,3.22,0,0,0-.45.92v2.08a.6.6,0,0,1-1.19,0v-4.32a.6.6,0,0,1,1.19,0v.08a1.19,1.19,0,0,1,.23-.22,2.41,2.41,0,0,1,1.38-.43A.57.57,0,0,1,242.36,210.58Z" style="fill:#fff"></path><g style="opacity:0.7000000000000001"><path d="M173.13,222a2.09,2.09,0,0,1-.23,1h0s-.06.11-.15.21a1.05,1.05,0,0,1-.47.29h-.16a.51.51,0,0,1-.45-.22.54.54,0,0,1-.1-.18,1.08,1.08,0,0,1-.54.13,1.12,1.12,0,0,1-.83-.36,1.26,1.26,0,0,1,0-1.7,1.13,1.13,0,0,1,1.67,0,1.27,1.27,0,0,1,.33.85v.78l0,0,.07-.1a1.38,1.38,0,0,0,.15-.65,1.43,1.43,0,1,0-1.43,1.43,1.37,1.37,0,0,0,.36,0,.33.33,0,0,1,.4.24.33.33,0,0,1-.24.41,2.18,2.18,0,0,1-.52.06,2.1,2.1,0,1,1,2.1-2.1Zm-1.6,0a.6.6,0,0,0-.15-.4.51.51,0,0,0-.35-.15.49.49,0,0,0-.34.15.61.61,0,0,0,0,.8.49.49,0,0,0,.34.15.51.51,0,0,0,.35-.15A.6.6,0,0,0,171.53,222Z" style="fill:#fff"></path><path d="M175.43,219.86a.34.34,0,0,1,.34.33v3.54a.34.34,0,0,1-.67,0v-3.54A.33.33,0,0,1,175.43,219.86Z" style="fill:#fff"></path><path d="M176.83,223.62a1.47,1.47,0,0,1-.42-1.05,1.54,1.54,0,0,1,.42-1,1.41,1.41,0,0,1,1-.46,1.32,1.32,0,0,1,1,.46,1.5,1.5,0,0,1,.42,1,1.43,1.43,0,0,1-.42,1.05,1.28,1.28,0,0,1-1,.46A1.38,1.38,0,0,1,176.83,223.62Zm.24-1.05a1,1,0,0,0,.21.63.8.8,0,0,0,.58.23.76.76,0,0,0,.55-.23.89.89,0,0,0,.24-.63.93.93,0,0,0-.24-.63.84.84,0,0,0-.55-.22.88.88,0,0,0-.58.22A1,1,0,0,0,177.07,222.57Z" style="fill:#fff"></path><path d="M182,221.38a.32.32,0,0,1-.32.32.55.55,0,0,0-.36.11.94.94,0,0,0-.27.29,1.73,1.73,0,0,0-.25.5v1.14a.33.33,0,0,1-.65,0v-2.36a.33.33,0,0,1,.65,0v0a.74.74,0,0,1,.13-.12,1.26,1.26,0,0,1,.75-.23A.31.31,0,0,1,182,221.38Z" style="fill:#fff"></path><path d="M182.31,222.56a1.48,1.48,0,0,1,1.46-1.5,1.44,1.44,0,0,1,1.45,1.39v0s0,.05,0,.06a.29.29,0,0,1-.31.24H183a.81.81,0,0,0,.2.39.88.88,0,0,0,.58.27.92.92,0,0,0,.62-.15.34.34,0,0,1,.45,0,.26.26,0,0,1,0,.38,1.46,1.46,0,0,1-1.07.4A1.48,1.48,0,0,1,182.31,222.56Zm.65-.29h1.7a1,1,0,0,0-.89-.64A.85.85,0,0,0,183,222.27Z" style="fill:#fff"></path><path d="M188.67,222.31v1.43a.31.31,0,0,1-.31.32.32.32,0,0,1-.32-.32v-1.43a.61.61,0,0,0-.62-.61.6.6,0,0,0-.6.61v1.43a.13.13,0,0,1,0,.06.33.33,0,0,1-.32.26.32.32,0,0,1-.32-.32v-2.36a.32.32,0,0,1,.32-.32.31.31,0,0,1,.29.19,1.15,1.15,0,0,1,.64-.19A1.26,1.26,0,0,1,188.67,222.31Z" style="fill:#fff"></path><path d="M189.64,222.57a1.52,1.52,0,0,1,1.52-1.51,1.59,1.59,0,0,1,1,.33.34.34,0,0,1,.06.45.33.33,0,0,1-.45.06.92.92,0,0,0-.57-.2.87.87,0,1,0,0,1.73.92.92,0,0,0,.57-.2.33.33,0,0,1,.45.07.33.33,0,0,1-.06.44,1.65,1.65,0,0,1-1,.32A1.51,1.51,0,0,1,189.64,222.57Z" style="fill:#fff"></path><path d="M193.46,223.62a1.46,1.46,0,0,1-.41-1.05,1.54,1.54,0,0,1,.41-1,1.41,1.41,0,0,1,1-.46,1.32,1.32,0,0,1,1,.46,1.5,1.5,0,0,1,.42,1,1.43,1.43,0,0,1-.42,1.05,1.28,1.28,0,0,1-1,.46A1.38,1.38,0,0,1,193.46,223.62Zm.24-1.05a.93.93,0,0,0,.22.63.78.78,0,0,0,.57.23.76.76,0,0,0,.55-.23.89.89,0,0,0,.24-.63.93.93,0,0,0-.24-.63.84.84,0,0,0-.55-.22.86.86,0,0,0-.57.22A1,1,0,0,0,193.7,222.57Z" style="fill:#fff"></path><path d="M197.21,223.62a1.46,1.46,0,0,1-.41-1.05,1.54,1.54,0,0,1,.41-1,1.41,1.41,0,0,1,1-.46,1.32,1.32,0,0,1,1,.46,1.5,1.5,0,0,1,.42,1,1.43,1.43,0,0,1-.42,1.05,1.28,1.28,0,0,1-1,.46A1.38,1.38,0,0,1,197.21,223.62Zm.24-1.05a.93.93,0,0,0,.22.63.78.78,0,0,0,.57.23.76.76,0,0,0,.55-.23.89.89,0,0,0,.24-.63.93.93,0,0,0-.24-.63.84.84,0,0,0-.55-.22.86.86,0,0,0-.57.22A1,1,0,0,0,197.45,222.57Z" style="fill:#fff"></path><path d="M200.68,224.86v-2.29h0v-1.19a.33.33,0,0,1,.65-.07,1.47,1.47,0,0,1,.82-.25,1.49,1.49,0,0,1,1.45,1.51,1.47,1.47,0,0,1-1.45,1.49,1.39,1.39,0,0,1-.81-.25v1.05a.34.34,0,0,1-.34.33A.34.34,0,0,1,200.68,224.86Zm.66-2.29a.8.8,0,0,0,.24.6.74.74,0,0,0,.57.25.75.75,0,0,0,.56-.25.88.88,0,0,0,.24-.6.93.93,0,0,0-.24-.61.77.77,0,0,0-.56-.24.76.76,0,0,0-.57.24A.84.84,0,0,0,201.34,222.57Z" style="fill:#fff"></path><path d="M204.37,222.56a1.5,1.5,0,0,1,1.47-1.5,1.43,1.43,0,0,1,1.44,1.39v.09a.3.3,0,0,1-.31.24h-1.91a.73.73,0,0,0,.2.39.88.88,0,0,0,.58.27.93.93,0,0,0,.62-.15.34.34,0,0,1,.45,0,.26.26,0,0,1,0,.38,1.47,1.47,0,0,1-1.07.4A1.49,1.49,0,0,1,204.37,222.56Zm.66-.29h1.7a1,1,0,0,0-.89-.64A.85.85,0,0,0,205,222.27Z" style="fill:#fff"></path><path d="M210,221.38a.32.32,0,0,1-.32.32.55.55,0,0,0-.36.11.94.94,0,0,0-.27.29,1.73,1.73,0,0,0-.25.5v1.14a.33.33,0,0,1-.65,0v-2.36a.33.33,0,0,1,.65,0v0a.74.74,0,0,1,.13-.12,1.26,1.26,0,0,1,.75-.23A.31.31,0,0,1,210,221.38Z" style="fill:#fff"></path><path d="M213.29,223.73a.32.32,0,0,1-.33.33h-2.14a.32.32,0,0,1-.24-.11.31.31,0,0,1,0-.46l1.77-1.61a.74.74,0,0,0,.25-.58.78.78,0,0,0-.19-.52.79.79,0,0,0-.58-.25.74.74,0,0,0-.52.2l-.19.17a.33.33,0,1,1-.44-.5l.18-.16a1.4,1.4,0,0,1,1-.38,1.46,1.46,0,0,1,1.07.48,1.41,1.41,0,0,1,.37,1,1.45,1.45,0,0,1-.47,1.07l-1.14,1H213A.33.33,0,0,1,213.29,223.73Z" style="fill:#fff"></path><path d="M215.37,220.19v3.54a.34.34,0,0,1-.34.33.32.32,0,0,1-.33-.33v-2.95l-.24.14a.34.34,0,0,1-.17.05.34.34,0,0,1-.17-.62l.74-.44h0l0,0h.25l0,0h0l0,0,0,0s0,0,0,0l0,0v0h0l0,0s0,0,0,0v0a.06.06,0,0,0,0,.05Z" style="fill:#fff"></path></g><path d="M169.35,242.24v-4.13a.38.38,0,0,1,.38-.39.39.39,0,0,1,.4.39v1.68h1.81v-1.68a.38.38,0,0,1,.39-.39.39.39,0,0,1,.39.39v4.13a.39.39,0,0,1-.39.39.38.38,0,0,1-.39-.39v-1.68h-1.81v1.68a.39.39,0,0,1-.4.39A.38.38,0,0,1,169.35,242.24Z" style="fill:#fff"></path><path d="M174.56,242.12a1.78,1.78,0,0,1-.49-1.24,1.8,1.8,0,0,1,.49-1.22,1.62,1.62,0,0,1,1.2-.53,1.55,1.55,0,0,1,1.17.53,1.72,1.72,0,0,1,.49,1.22,1.7,1.7,0,0,1-.49,1.24,1.55,1.55,0,0,1-1.17.53A1.62,1.62,0,0,1,174.56,242.12Zm.28-1.24a1.17,1.17,0,0,0,.25.75,1,1,0,0,0,.67.26,1,1,0,0,0,.65-.26,1.13,1.13,0,0,0,.27-.75,1,1,0,0,0-.27-.72,1,1,0,0,0-.65-.27,1,1,0,0,0-.67.27A1.09,1.09,0,0,0,174.84,240.88Z" style="fill:#fff"></path><path d="M181.54,240.58v1.68a.38.38,0,0,1-.37.37.38.38,0,0,1-.38-.37v-1.68a.72.72,0,0,0-1.43,0v1.66a.43.43,0,0,0,0,.05v0s0,0,0,0v0a.4.4,0,0,1-.35.23h-.07a.37.37,0,0,1-.3-.36V240.6h0V239.5a.37.37,0,0,1,.37-.37.35.35,0,0,1,.34.21,1.39,1.39,0,0,1,.75-.21,1.46,1.46,0,0,1,1.1.48,1.47,1.47,0,0,1,2.55,1v1.66a.37.37,0,0,1-.37.37.38.38,0,0,1-.38-.37V240.6a.71.71,0,0,0-.7-.72A.72.72,0,0,0,181.54,240.58Z" style="fill:#fff"></path><path d="M185,240.88a1.73,1.73,0,0,1,1.71-1.75,1.67,1.67,0,0,1,1.69,1.62v0a.15.15,0,0,1,0,.06.33.33,0,0,1-.36.28h-2.23a.93.93,0,0,0,.24.46,1.09,1.09,0,0,0,.67.32,1.19,1.19,0,0,0,.73-.18.4.4,0,0,1,.52,0,.3.3,0,0,1,0,.45,1.76,1.76,0,0,1-3-1.28Zm.77-.35h2a1.15,1.15,0,0,0-1-.74A1,1,0,0,0,185.79,240.53Z" style="fill:#fff"></path><path d="M171,261.39h-.86v1.52a.4.4,0,0,1-.4.39.39.39,0,0,1-.38-.39v-4.13a.38.38,0,0,1,.38-.38H171a1.5,1.5,0,1,1,0,3Zm-.86-.77H171a.73.73,0,1,0,0-1.45h-.86Z" style="fill:#fff"></path><path d="M174.13,262.91a.38.38,0,0,1-.39.39.4.4,0,0,1-.37-.29.3.3,0,0,1,0-.1v-4.13a.39.39,0,0,1,.39-.38.38.38,0,0,1,.39.38V260a1.58,1.58,0,0,1,.75-.2,1.53,1.53,0,0,1,1.53,1.53v1.58a.38.38,0,0,1-.39.39.38.38,0,0,1-.38-.39v-1.58a.76.76,0,0,0-1.51,0Z" style="fill:#fff"></path><path d="M178,262.79a1.76,1.76,0,0,1-.49-1.23,1.83,1.83,0,0,1,.49-1.23,1.62,1.62,0,0,1,1.2-.53,1.55,1.55,0,0,1,1.17.53,1.74,1.74,0,0,1,.49,1.23,1.67,1.67,0,0,1-.49,1.23,1.55,1.55,0,0,1-1.17.53A1.62,1.62,0,0,1,178,262.79Zm.28-1.23a1.14,1.14,0,0,0,.25.74.94.94,0,0,0,.67.26.92.92,0,0,0,.65-.26,1.1,1.1,0,0,0,.27-.74,1.08,1.08,0,0,0-.27-.73,1,1,0,0,0-.65-.27,1,1,0,0,0-.67.27A1.11,1.11,0,0,0,178.25,261.56Z" style="fill:#fff"></path><path d="M183.46,260.18a.4.4,0,0,1-.39.39h-.18v1.95a.39.39,0,0,1,.39.39.38.38,0,0,1-.39.39.78.78,0,0,1-.77-.78v-1.95h-.21a.39.39,0,0,1-.38-.39.38.38,0,0,1,.38-.38h.21v-1a.38.38,0,0,1,.39-.38.37.37,0,0,1,.38.38v1h.18A.39.39,0,0,1,183.46,260.18Z" style="fill:#fff"></path><path d="M184.9,262.79a1.75,1.75,0,0,1-.48-1.23,1.82,1.82,0,0,1,.48-1.23,1.64,1.64,0,0,1,1.21-.53,1.55,1.55,0,0,1,1.17.53,1.78,1.78,0,0,1,.49,1.23,1.71,1.71,0,0,1-.49,1.23,1.55,1.55,0,0,1-1.17.53A1.64,1.64,0,0,1,184.9,262.79Zm.28-1.23a1.09,1.09,0,0,0,.26.74.92.92,0,0,0,.67.26.9.9,0,0,0,.64-.26,1.06,1.06,0,0,0,.28-.74,1,1,0,0,0-.28-.73,1,1,0,0,0-.64-.27,1,1,0,0,0-.67.27A1.07,1.07,0,0,0,185.18,261.56Z" style="fill:#fff"></path><path d="M188.79,262.3a.36.36,0,0,1,.52-.06,1.26,1.26,0,0,0,.77.31.94.94,0,0,0,.48-.13c.1-.09.13-.16.13-.21a.12.12,0,0,0,0-.07.3.3,0,0,0-.1-.09,1.54,1.54,0,0,0-.56-.19h0a2.72,2.72,0,0,1-.61-.19,1.18,1.18,0,0,1-.49-.4.93.93,0,0,1-.11-.44,1,1,0,0,1,.41-.77,1.48,1.48,0,0,1,.86-.26,1.82,1.82,0,0,1,1.05.38.38.38,0,0,1,.11.52.37.37,0,0,1-.52.1,1.17,1.17,0,0,0-.64-.26.72.72,0,0,0-.42.13.2.2,0,0,0-.11.16.07.07,0,0,0,0,.05.14.14,0,0,0,.08.07,1.24,1.24,0,0,0,.51.17h0a2.41,2.41,0,0,1,.66.2,1.15,1.15,0,0,1,.49.42.83.83,0,0,1,.14.46,1,1,0,0,1-.45.81,1.54,1.54,0,0,1-.91.28,2.07,2.07,0,0,1-1.24-.48A.37.37,0,0,1,188.79,262.3Z" style="fill:#fff"></path><path d="M169.35,283.59v-4.13a.39.39,0,0,1,.38-.39.4.4,0,0,1,.4.39v3.74H172a.39.39,0,1,1,0,.77h-2.29A.38.38,0,0,1,169.35,283.59Z" style="fill:#fff"></path><path d="M174,279.59a.38.38,0,0,1-.38.39.39.39,0,0,1-.38-.39v-.14a.38.38,0,0,1,.38-.38.37.37,0,0,1,.38.38Zm0,1.27v2.73a.37.37,0,0,1-.38.38.38.38,0,0,1-.38-.38v-2.73a.37.37,0,0,1,.38-.38A.37.37,0,0,1,174,280.86Z" style="fill:#fff"></path><path d="M175.18,283.59v-4.13a.39.39,0,0,1,.39-.39.4.4,0,0,1,.39.39v2.42l1.43-1.44a.41.41,0,0,1,.55,0,.39.39,0,0,1,0,.55L176.89,282l1.08,1.29a.39.39,0,0,1-.06.55.38.38,0,0,1-.54-.05l-1-1.24L176,283v.62a.39.39,0,0,1-.39.38A.38.38,0,0,1,175.18,283.59Z" style="fill:#fff"></path><path d="M178.68,282.22a1.74,1.74,0,0,1,1.71-1.75,1.68,1.68,0,0,1,1.69,1.63v0s0,.05,0,.06a.33.33,0,0,1-.36.28h-2.23a.89.89,0,0,0,.24.47,1.08,1.08,0,0,0,.67.31,1.19,1.19,0,0,0,.73-.17.39.39,0,0,1,.52,0,.33.33,0,0,1,0,.46,1.77,1.77,0,0,1-3-1.29Zm.76-.34h2a1.14,1.14,0,0,0-1-.74A1,1,0,0,0,179.44,281.88Z" style="fill:#fff"></path><path d="M183,283a.36.36,0,0,1,.53-.05,1.26,1.26,0,0,0,.77.3.9.9,0,0,0,.47-.13.28.28,0,0,0,.13-.21.12.12,0,0,0,0-.07.24.24,0,0,0-.09-.08,1.67,1.67,0,0,0-.56-.2h0a2.72,2.72,0,0,1-.61-.18,1.12,1.12,0,0,1-.48-.41.81.81,0,0,1-.12-.44,1,1,0,0,1,.41-.77,1.5,1.5,0,0,1,.86-.26,1.73,1.73,0,0,1,1,.39.37.37,0,0,1,.11.51.36.36,0,0,1-.51.1,1.28,1.28,0,0,0-.65-.26.72.72,0,0,0-.42.13.2.2,0,0,0-.11.16.11.11,0,0,0,0,.06.31.31,0,0,0,.08.07,1.45,1.45,0,0,0,.51.16h0a2.88,2.88,0,0,1,.65.2,1,1,0,0,1,.49.42.86.86,0,0,1,.14.46,1,1,0,0,1-.44.81,1.58,1.58,0,0,1-.91.28,2,2,0,0,1-1.25-.48A.38.38,0,0,1,183,283Z" style="fill:#fff"></path><path d="M171.85,303.49h-1.7l-.35.91a.39.39,0,0,1-.36.24.27.27,0,0,1-.13,0,.38.38,0,0,1-.23-.5l1.54-4.13a.4.4,0,0,1,.38-.24.39.39,0,0,1,.37.24l1.54,4.13a.38.38,0,0,1-.23.5.25.25,0,0,1-.13,0,.39.39,0,0,1-.36-.24Zm-.29-.77-.56-1.51-.57,1.51Z" style="fill:#fff"></path><path d="M173.79,302.9h0v-2.77a.39.39,0,0,1,.77,0v1.32a1.6,1.6,0,0,1,.94-.3,1.75,1.75,0,0,1,0,3.5,1.68,1.68,0,0,1-1-.3.37.37,0,0,1-.37.3.38.38,0,0,1-.38-.37Zm.77,0a.94.94,0,0,0,.28.69.88.88,0,0,0,1.31,0,1,1,0,0,0,.29-.69,1,1,0,0,0-.29-.71.91.91,0,0,0-1.31,0A1,1,0,0,0,174.56,302.9Z" style="fill:#fff"></path><path d="M178.74,304.13a1.74,1.74,0,0,1-.49-1.23,1.83,1.83,0,0,1,.49-1.23,1.65,1.65,0,0,1,1.2-.53,1.59,1.59,0,0,1,1.17.53,1.74,1.74,0,0,1,.49,1.23,1.66,1.66,0,0,1-.49,1.23,1.56,1.56,0,0,1-1.17.54A1.63,1.63,0,0,1,178.74,304.13Zm.28-1.23a1.12,1.12,0,0,0,.25.74.94.94,0,0,0,.67.26.92.92,0,0,0,.65-.26,1.14,1.14,0,0,0,0-1.47,1,1,0,0,0-.65-.26,1,1,0,0,0-.67.26A1.11,1.11,0,0,0,179,302.9Z" style="fill:#fff"></path><path d="M184.06,304.64a1.46,1.46,0,0,1-1.45-1.45v-1.68a.38.38,0,0,1,.37-.37.38.38,0,0,1,.37.37v1.68a.7.7,0,0,0,.71.71.73.73,0,0,0,.74-.71v-1.68a.37.37,0,0,1,.36-.37.39.39,0,0,1,.38.37v1.68A1.47,1.47,0,0,1,184.06,304.64Z" style="fill:#fff"></path><path d="M188.54,301.53a.39.39,0,0,1-.39.38H188v2a.38.38,0,0,1,.38.39.37.37,0,0,1-.38.38.78.78,0,0,1-.78-.77v-2H187a.39.39,0,1,1,0-.77h.2v-1a.39.39,0,1,1,.78,0v1h.17A.39.39,0,0,1,188.54,301.53Z" style="fill:#fff"></path><path d="M169.13,322.8a2.56,2.56,0,0,1,2.59-2.53,2.59,2.59,0,0,1,1.59.55.4.4,0,0,1,.08.57.41.41,0,0,1-.57.06,1.81,1.81,0,0,0-1.1-.38,1.72,1.72,0,0,0-1.26.51,1.66,1.66,0,0,0,0,2.43,1.72,1.72,0,0,0,1.26.51,2,2,0,0,0,1-.27v-1h-1a.4.4,0,0,1-.39-.4.39.39,0,0,1,.39-.39h1.4a.39.39,0,0,1,.4.39v1.55a.43.43,0,0,1,0,.12.06.06,0,0,1,0,0h0a.3.3,0,0,1-.13.17,2.62,2.62,0,0,1-1.59.55A2.55,2.55,0,0,1,169.13,322.8Z" style="fill:#fff"></path><path d="M177.13,322.19a.38.38,0,0,1-.37.37.68.68,0,0,0-.42.13,1,1,0,0,0-.33.34,2.09,2.09,0,0,0-.28.59V325a.39.39,0,0,1-.39.37A.38.38,0,0,1,175,325v-2.76a.37.37,0,0,1,.37-.37.38.38,0,0,1,.39.37v.05a.62.62,0,0,1,.14-.14,1.57,1.57,0,0,1,.89-.28A.36.36,0,0,1,177.13,322.19Z" style="fill:#fff"></path><path d="M178.19,324.81a1.77,1.77,0,0,1-.48-1.24,1.8,1.8,0,0,1,.48-1.22,1.64,1.64,0,0,1,1.21-.53,1.52,1.52,0,0,1,1.16.53,1.72,1.72,0,0,1,.5,1.22,1.7,1.7,0,0,1-.5,1.24,1.55,1.55,0,0,1-1.16.53A1.68,1.68,0,0,1,178.19,324.81Zm.28-1.24a1.17,1.17,0,0,0,.25.75,1,1,0,0,0,.68.26,1,1,0,0,0,.64-.26,1.13,1.13,0,0,0,.27-.75,1.09,1.09,0,0,0-.27-.73,1,1,0,0,0-.64-.26,1.06,1.06,0,0,0-.68.26A1.13,1.13,0,0,0,178.47,323.57Z" style="fill:#fff"></path><path d="M183.52,325.32a1.47,1.47,0,0,1-1.46-1.46v-1.67a.38.38,0,0,1,.37-.37.37.37,0,0,1,.37.37v1.67a.72.72,0,0,0,.72.72.73.73,0,0,0,.73-.72v-1.67a.37.37,0,0,1,.37-.37.39.39,0,0,1,.38.37v1.67A1.49,1.49,0,0,1,183.52,325.32Z" style="fill:#fff"></path><path d="M186.42,326.26v-2.68h0v-1.38a.37.37,0,0,1,.37-.37.39.39,0,0,1,.39.28,1.74,1.74,0,1,1,.95,3.21,1.57,1.57,0,0,1-.94-.29v1.24a.39.39,0,0,1-.4.37A.38.38,0,0,1,186.42,326.26Zm.77-2.69a.9.9,0,0,0,.28.7.84.84,0,0,0,.66.3.88.88,0,0,0,.66-.3,1,1,0,0,0,.27-.7,1.07,1.07,0,0,0-.27-.7.91.91,0,0,0-.66-.29.86.86,0,0,0-.66.29A.94.94,0,0,0,187.19,323.57Z" style="fill:#fff"></path><path d="M190.87,324.32a.37.37,0,0,1,.53-.06,1.3,1.3,0,0,0,.77.31,1,1,0,0,0,.48-.14.29.29,0,0,0,.12-.21.1.1,0,0,0,0-.07s0,0-.09-.08a1.67,1.67,0,0,0-.56-.2h0a2.52,2.52,0,0,1-.61-.18,1.15,1.15,0,0,1-.48-.4.84.84,0,0,1-.12-.45,1,1,0,0,1,.41-.77,1.58,1.58,0,0,1,.87-.25,1.85,1.85,0,0,1,1.05.38.4.4,0,0,1,.11.52.37.37,0,0,1-.52.1,1.17,1.17,0,0,0-.64-.26.7.7,0,0,0-.42.12c-.09.07-.12.13-.12.16s0,0,0,.06l.07.07a1.56,1.56,0,0,0,.52.17h0a2.34,2.34,0,0,1,.65.2,1.1,1.1,0,0,1,.5.41.94.94,0,0,1,.13.46,1,1,0,0,1-.44.82,1.63,1.63,0,0,1-.91.28,2,2,0,0,1-1.25-.49A.37.37,0,0,1,190.87,324.32Z" style="fill:#fff"></path><rect x="445.43" y="181.76" width="39.64" height="14.5" style="fill:#FFC727"></rect><path d="M462.55,191v-4.14a.38.38,0,0,1,.39-.38.39.39,0,0,1,.39.38v3.74h1.9a.4.4,0,0,1,.38.4.39.39,0,0,1-.38.38h-2.29A.38.38,0,0,1,462.55,191Z" style="fill:#fff"></path><path d="M467.18,187a.38.38,0,0,1-.38.39.39.39,0,0,1-.38-.39v-.14a.38.38,0,0,1,.38-.38.37.37,0,0,1,.38.38Zm0,1.27V191a.37.37,0,0,1-.38.38.38.38,0,0,1-.38-.38v-2.73a.37.37,0,0,1,.38-.38A.37.37,0,0,1,467.18,188.22Z" style="fill:#fff"></path><path d="M468.38,191v-4.14a.39.39,0,0,1,.78,0v2.43l1.44-1.44a.38.38,0,0,1,.54,0,.38.38,0,0,1,0,.55l-1.05,1.05,1.08,1.29a.39.39,0,0,1-.06.55.38.38,0,0,1-.24.09.36.36,0,0,1-.29-.14l-1-1.25-.38.39V191a.39.39,0,0,1-.78,0Z" style="fill:#fff"></path><path d="M471.88,189.58a1.74,1.74,0,0,1,1.71-1.75,1.68,1.68,0,0,1,1.69,1.62v0s0,0,0,.06a.33.33,0,0,1-.36.28h-2.23a.89.89,0,0,0,.24.46,1.09,1.09,0,0,0,.67.32,1.19,1.19,0,0,0,.73-.17.39.39,0,0,1,.52,0,.31.31,0,0,1,0,.46,1.77,1.77,0,0,1-1.25.46A1.74,1.74,0,0,1,471.88,189.58Zm.77-.34h2a1.14,1.14,0,0,0-1-.74A1,1,0,0,0,472.65,189.24Z" style="fill:#fff"></path><g id="freepik--xsrjP0--inject-7"><path d="M456.54,190.92c-.11-.07-.21-.17-.36-.15s0,0,0-.08c0-.55,0-1.11,0-1.67,0,0,0-.08.05-.1a2.79,2.79,0,0,0,.87-1,1.66,1.66,0,0,0,.3-1.27c0-.13,0-.18.16-.21a.29.29,0,0,1,.32.1,2.32,2.32,0,0,1,.24.73,2.7,2.7,0,0,1-.07.63c0,.15-.06.3-.09.46s.08,0,.12,0h1.42c.2,0,.3.06.33.19a.4.4,0,0,1-.21.41s-.1,0-.1.05.06.06.09.08a.3.3,0,0,1-.05.5c-.05,0-.14,0-.15.09s.09.05.13.09a.31.31,0,0,1-.14.49l-.08,0s0,0,0,.06a.28.28,0,0,1,0,.5l-.07,0a.35.35,0,0,1-.24.06h-2.23A.26.26,0,0,1,456.54,190.92Z" style="fill:#fff;fill-rule:evenodd"></path><path d="M454.43,189.94v-1.06c0-.07,0-.11.09-.11h1.3c.08,0,.1,0,.1.1,0,.72,0,1.43,0,2.15,0,.09,0,.11-.12.11h-1.26c-.1,0-.12,0-.12-.13C454.44,190.65,454.43,190.3,454.43,189.94Z" style="fill:#fff;fill-rule:evenodd"></path></g><rect x="494.46" y="181.76" width="39.64" height="14.5" style="fill:#FFC727"></rect><path d="M507,191v-4.14a.37.37,0,0,1,.38-.38h2.29a.4.4,0,0,1,.39.38.41.41,0,0,1-.39.4h-1.9v1.28h1.64a.39.39,0,0,1,.38.38.39.39,0,0,1-.38.4h-1.64V191a.38.38,0,0,1-.39.38A.37.37,0,0,1,507,191Z" style="fill:#fff"></path><path d="M511,190.82a1.71,1.71,0,0,1-.49-1.23,1.78,1.78,0,0,1,.49-1.23,1.62,1.62,0,0,1,1.2-.53,1.55,1.55,0,0,1,1.17.53,1.78,1.78,0,0,1,.49,1.23,1.71,1.71,0,0,1-.49,1.23,1.55,1.55,0,0,1-1.17.53A1.62,1.62,0,0,1,511,190.82Zm.28-1.23a1.14,1.14,0,0,0,.25.74.92.92,0,0,0,.67.26.88.88,0,0,0,.64-.26,1.06,1.06,0,0,0,.28-.74,1,1,0,0,0-.28-.73,1,1,0,0,0-.64-.27,1,1,0,0,0-.67.27A1.11,1.11,0,0,0,511.24,189.59Z" style="fill:#fff"></path><path d="M515.44,186.43a.38.38,0,0,1,.39.38V191a.39.39,0,0,1-.77,0v-4.14A.38.38,0,0,1,515.44,186.43Z" style="fill:#fff"></path><path d="M517.18,186.43a.39.39,0,0,1,.4.38V191a.39.39,0,0,1-.4.38.38.38,0,0,1-.38-.38v-4.14A.38.38,0,0,1,517.18,186.43Z" style="fill:#fff"></path><path d="M518.82,190.82a1.71,1.71,0,0,1-.49-1.23,1.78,1.78,0,0,1,.49-1.23,1.62,1.62,0,0,1,1.2-.53,1.55,1.55,0,0,1,1.17.53,1.74,1.74,0,0,1,.49,1.23,1.67,1.67,0,0,1-.49,1.23,1.55,1.55,0,0,1-1.17.53A1.62,1.62,0,0,1,518.82,190.82Zm.28-1.23a1.14,1.14,0,0,0,.25.74,1,1,0,0,0,1.32,0,1.1,1.1,0,0,0,.27-.74,1.08,1.08,0,0,0-.27-.73,1,1,0,0,0-.65-.27,1,1,0,0,0-.67.27A1.11,1.11,0,0,0,519.1,189.59Z" style="fill:#fff"></path><path d="M527.09,188.39l-1.15,2.72,0,0h0l0,0h0l0,0s0,0,0,0,0,0-.06,0h-.29s0,0-.06,0h0s0,0,0,0h0l0,0h0l0,0-.51-1.21-.49,1.21,0,0h0l0,0h0l0,0s0,0-.06,0h-.3a.08.08,0,0,1-.06,0h0l0,0h0s0,0,0,0h0l0,0-1.15-2.72a.35.35,0,0,1,.2-.48.34.34,0,0,1,.46.21l.83,1.88.49-1.17a.37.37,0,0,1,.34-.22.36.36,0,0,1,.35.22l.49,1.17.83-1.88a.34.34,0,0,1,.47-.21A.36.36,0,0,1,527.09,188.39Z" style="fill:#fff"></path><g id="freepik--u5Zjqx--inject-7"><path d="M504.71,190.84h-.57a3.57,3.57,0,0,0-3.54-3.58,1.41,1.41,0,0,1,0-.2v-.37h0l.44,0a3.87,3.87,0,0,1,.88.2,4,4,0,0,1,1,.48c.14.1.27.21.4.32s.31.3.32.31l.22.26a4.2,4.2,0,0,1,.5.81,4.67,4.67,0,0,1,.23.66,4.16,4.16,0,0,1,.12.72c0,.12,0,.24,0,.37Z" style="fill:#fff"></path><path d="M500.6,188.43v-.59a2.86,2.86,0,0,1,1.78.61,2.93,2.93,0,0,1,1.18,2.38H503a2.3,2.3,0,0,0-.69-1.69A2.35,2.35,0,0,0,500.6,188.43Z" style="fill:#fff"></path><path d="M502.39,190.82h-.58a1.21,1.21,0,0,0-1.22-1.23c0-.19,0-.39,0-.58A1.79,1.79,0,0,1,502.39,190.82Z" style="fill:#fff"></path></g><rect x="543.49" y="181.76" width="39.64" height="14.5" style="fill:#FFC727"></rect><path d="M555.9,190.11a.37.37,0,0,1,.51-.05,2.22,2.22,0,0,0,1.34.54,1.45,1.45,0,0,0,.87-.26.62.62,0,0,0,.3-.5.4.4,0,0,0-.06-.22.69.69,0,0,0-.21-.21,2.54,2.54,0,0,0-1-.33h0a4,4,0,0,1-.91-.28,1.55,1.55,0,0,1-.65-.54,1.15,1.15,0,0,1-.16-.58,1.3,1.3,0,0,1,.56-1,2.07,2.07,0,0,1,1.21-.37,2.78,2.78,0,0,1,1.53.56.36.36,0,0,1-.4.6,2,2,0,0,0-1.13-.45,1.34,1.34,0,0,0-.78.24.57.57,0,0,0-.27.44.39.39,0,0,0,.05.2.83.83,0,0,0,.19.18,2.35,2.35,0,0,0,.87.31h0a4.26,4.26,0,0,1,1,.29,1.74,1.74,0,0,1,.7.58,1.19,1.19,0,0,1,.16.6,1.37,1.37,0,0,1-.6,1.09,2.19,2.19,0,0,1-1.29.39,3,3,0,0,1-1.8-.7A.37.37,0,0,1,555.9,190.11Z" style="fill:#fff"></path><path d="M561.42,191a.39.39,0,0,1-.76.09.24.24,0,0,1,0-.09v-4.14a.39.39,0,0,1,.39-.38.38.38,0,0,1,.39.38V188a1.58,1.58,0,0,1,.75-.2,1.53,1.53,0,0,1,1.53,1.53V191a.38.38,0,0,1-.39.38.37.37,0,0,1-.38-.38v-1.59a.76.76,0,0,0-1.51,0Z" style="fill:#fff"></path><path d="M568.18,189.59V191a.37.37,0,0,1-.74.07,1.62,1.62,0,0,1-2.12-.21,1.83,1.83,0,0,1,0-2.47,1.59,1.59,0,0,1,2.12-.21.37.37,0,0,1,.74.07Zm-.75,0a1,1,0,0,0-.27-.72.87.87,0,0,0-.65-.29.84.84,0,0,0-.65.29,1,1,0,0,0-.27.72,1,1,0,0,0,.27.72.9.9,0,0,0,.65.27.93.93,0,0,0,.65-.27A1,1,0,0,0,567.43,189.59Z" style="fill:#fff"></path><path d="M571.7,188.2a.37.37,0,0,1-.37.37.63.63,0,0,0-.42.14,1,1,0,0,0-.32.33,2.34,2.34,0,0,0-.29.59V191a.38.38,0,0,1-.38.37.37.37,0,0,1-.37-.37V188.2a.36.36,0,0,1,.37-.36.37.37,0,0,1,.38.36v.05l.15-.14a1.53,1.53,0,0,1,.88-.27A.36.36,0,0,1,571.7,188.2Z" style="fill:#fff"></path><path d="M572,189.58a1.72,1.72,0,0,1,1.7-1.75,1.67,1.67,0,0,1,1.69,1.62v.1a.35.35,0,0,1-.37.28h-2.23a1,1,0,0,0,.24.46,1.09,1.09,0,0,0,.67.32,1.15,1.15,0,0,0,.73-.17.4.4,0,0,1,.53,0,.33.33,0,0,1,0,.46,1.81,1.81,0,0,1-1.26.46A1.73,1.73,0,0,1,572,189.58Zm.76-.34h2a1.14,1.14,0,0,0-1-.74A1,1,0,0,0,572.79,189.24Z" style="fill:#fff"></path><path d="M550.76,191.34a5.07,5.07,0,0,1,.21-2.08,5.89,5.89,0,0,1,.43-1,5,5,0,0,1,.6-.94l1,1a6.13,6.13,0,0,0-.69.57,4,4,0,0,0-.58.71,6,6,0,0,0-.84,1.72Z" style="fill:#fff"></path><polygon points="553.02 189.26 554.19 186.69 551.38 186.96 553.02 189.26" style="fill:#fff"></polygon><path d="M301.62,191.4h-.87v1.52a.39.39,0,0,1-.77,0v-4.13a.38.38,0,0,1,.38-.39h1.26a1.5,1.5,0,1,1,0,3Zm-.87-.78h.87a.72.72,0,1,0,0-1.44h-.87Z" style="fill:#263238"></path><path d="M303.67,191.55a1.72,1.72,0,0,1,1.7-1.75,1.67,1.67,0,0,1,1.69,1.63v.09a.35.35,0,0,1-.37.28h-2.23a1.05,1.05,0,0,0,.24.47,1.13,1.13,0,0,0,.67.31,1.15,1.15,0,0,0,.73-.17.39.39,0,0,1,.53,0,.31.31,0,0,1,0,.45,1.77,1.77,0,0,1-1.26.46A1.72,1.72,0,0,1,303.67,191.55Zm.76-.34h2a1.15,1.15,0,0,0-1-.74A1,1,0,0,0,304.43,191.21Z" style="fill:#263238"></path><path d="M310.18,190.17a.37.37,0,0,1-.37.37.68.68,0,0,0-.42.14,1,1,0,0,0-.32.33,2.34,2.34,0,0,0-.29.59v1.33a.38.38,0,0,1-.38.37.37.37,0,0,1-.37-.37v-2.76a.36.36,0,0,1,.37-.36.37.37,0,0,1,.38.36v.05l.15-.14a1.53,1.53,0,0,1,.88-.27A.36.36,0,0,1,310.18,190.17Z" style="fill:#263238"></path><path d="M310.93,192.3a.36.36,0,0,1,.53-.05,1.26,1.26,0,0,0,.77.3.9.9,0,0,0,.47-.13.28.28,0,0,0,.13-.21.14.14,0,0,0,0-.07.24.24,0,0,0-.09-.08,1.67,1.67,0,0,0-.56-.2h0a2.72,2.72,0,0,1-.61-.18,1.12,1.12,0,0,1-.48-.41.81.81,0,0,1-.12-.44,1,1,0,0,1,.41-.77,1.5,1.5,0,0,1,.86-.26,1.73,1.73,0,0,1,1.05.39.38.38,0,0,1,.12.51.37.37,0,0,1-.52.1,1.28,1.28,0,0,0-.65-.26.72.72,0,0,0-.42.13.21.21,0,0,0-.11.16.11.11,0,0,0,0,.06.31.31,0,0,0,.08.07,1.45,1.45,0,0,0,.51.16h0a2.73,2.73,0,0,1,.65.2,1.12,1.12,0,0,1,.5.42.94.94,0,0,1,.13.46,1,1,0,0,1-.44.81,1.56,1.56,0,0,1-.91.28,2,2,0,0,1-1.25-.48A.39.39,0,0,1,310.93,192.3Z" style="fill:#263238"></path><path d="M314.87,192.79a1.71,1.71,0,0,1-.49-1.23,1.78,1.78,0,0,1,.49-1.23,1.62,1.62,0,0,1,1.2-.53,1.55,1.55,0,0,1,1.17.53,1.74,1.74,0,0,1,.49,1.23,1.67,1.67,0,0,1-.49,1.23,1.55,1.55,0,0,1-1.17.53A1.62,1.62,0,0,1,314.87,192.79Zm.28-1.23a1.14,1.14,0,0,0,.25.74,1,1,0,0,0,1.32,0,1.1,1.1,0,0,0,.27-.74,1.08,1.08,0,0,0-.27-.73,1,1,0,0,0-.65-.27,1,1,0,0,0-.67.27A1.11,1.11,0,0,0,315.15,191.56Z" style="fill:#263238"></path><path d="M321.84,191.26v1.67a.37.37,0,0,1-.36.37.38.38,0,0,1-.38-.37v-1.67a.72.72,0,0,0-.72-.71.7.7,0,0,0-.7.71v1.67a.11.11,0,0,1,0,.07.38.38,0,0,1-.37.3.37.37,0,0,1-.37-.37v-2.76a.37.37,0,0,1,.37-.37.36.36,0,0,1,.34.22,1.35,1.35,0,0,1,.75-.22A1.47,1.47,0,0,1,321.84,191.26Z" style="fill:#263238"></path><path d="M326.17,191.56v1.37a.37.37,0,0,1-.73.07,1.59,1.59,0,0,1-.93.3,1.64,1.64,0,0,1-1.2-.51,1.78,1.78,0,0,1-.47-1.23,1.76,1.76,0,0,1,.47-1.23,1.62,1.62,0,0,1,1.2-.53,1.6,1.6,0,0,1,.93.31.37.37,0,0,1,.36-.31.38.38,0,0,1,.37.38Zm-.74,0a1,1,0,0,0-.27-.72.87.87,0,0,0-.65-.29.86.86,0,0,0-.66.29,1,1,0,0,0-.26.72,1.07,1.07,0,0,0,.26.72.88.88,0,0,0,.66.27.89.89,0,0,0,.65-.27A1.08,1.08,0,0,0,325.43,191.56Z" style="fill:#263238"></path><path d="M328.07,188.4a.4.4,0,0,1,.4.39v4.13a.39.39,0,0,1-.4.38.38.38,0,0,1-.38-.38v-4.13A.39.39,0,0,1,328.07,188.4Z" style="fill:#263238"></path><path d="M331.61,188.79a.38.38,0,0,1,.38-.39.4.4,0,0,1,.4.39v4.13a.4.4,0,0,1-.4.38.38.38,0,0,1-.38-.38Z" style="fill:#263238"></path><path d="M336.54,191.26v1.67a.37.37,0,0,1-.37.37.38.38,0,0,1-.37-.37v-1.67a.72.72,0,0,0-.73-.71.7.7,0,0,0-.7.71v1.67a.2.2,0,0,1,0,.07.38.38,0,0,1-.37.3.37.37,0,0,1-.37-.37v-2.76a.37.37,0,0,1,.37-.37.36.36,0,0,1,.34.22,1.34,1.34,0,0,1,.74-.22A1.47,1.47,0,0,1,336.54,191.26Z" style="fill:#263238"></path><path d="M339.48,190.19a.39.39,0,0,1-.39.38h-.17v2a.39.39,0,0,1,0,.77.78.78,0,0,1-.78-.77v-2h-.2a.39.39,0,1,1,0-.77h.2v-1a.39.39,0,0,1,.39-.39.38.38,0,0,1,.39.39v1h.17A.39.39,0,0,1,339.48,190.19Z" style="fill:#263238"></path><path d="M340.18,191.55a1.74,1.74,0,0,1,1.71-1.75,1.68,1.68,0,0,1,1.69,1.63v0s0,0,0,.06a.33.33,0,0,1-.36.28H341a1,1,0,0,0,.24.47,1.13,1.13,0,0,0,.67.31,1.15,1.15,0,0,0,.73-.17.39.39,0,0,1,.53,0,.31.31,0,0,1,0,.45,1.77,1.77,0,0,1-1.26.46A1.74,1.74,0,0,1,340.18,191.55Zm.77-.34h2a1.15,1.15,0,0,0-1-.74A1,1,0,0,0,341,191.21Z" style="fill:#263238"></path><path d="M346.7,190.17a.37.37,0,0,1-.37.37.68.68,0,0,0-.42.14,1,1,0,0,0-.32.33,2.34,2.34,0,0,0-.29.59v1.33a.38.38,0,0,1-.38.37.37.37,0,0,1-.37-.37v-2.76a.36.36,0,0,1,.37-.36.37.37,0,0,1,.38.36v.05a1,1,0,0,1,.15-.14,1.53,1.53,0,0,1,.88-.27A.36.36,0,0,1,346.7,190.17Z" style="fill:#263238"></path><path d="M347,191.55a1.74,1.74,0,0,1,1.71-1.75,1.68,1.68,0,0,1,1.69,1.63v0s0,0,0,.06a.33.33,0,0,1-.36.28h-2.23a1,1,0,0,0,.24.47,1.13,1.13,0,0,0,.67.31,1.17,1.17,0,0,0,.73-.17.39.39,0,0,1,.53,0,.31.31,0,0,1,0,.45,1.77,1.77,0,0,1-1.26.46A1.74,1.74,0,0,1,347,191.55Zm.77-.34h2a1.15,1.15,0,0,0-1-.74A1,1,0,0,0,347.79,191.21Z" style="fill:#263238"></path><path d="M351.36,192.3a.36.36,0,0,1,.53-.05,1.29,1.29,0,0,0,.77.3,1,1,0,0,0,.48-.13.29.29,0,0,0,.12-.21.14.14,0,0,0,0-.07.18.18,0,0,0-.09-.08,1.67,1.67,0,0,0-.56-.2h0a2.72,2.72,0,0,1-.61-.18,1.18,1.18,0,0,1-.48-.41.81.81,0,0,1-.12-.44,1,1,0,0,1,.41-.77,1.51,1.51,0,0,1,.87-.26,1.78,1.78,0,0,1,1.05.39.39.39,0,0,1,.11.51.37.37,0,0,1-.52.1,1.28,1.28,0,0,0-.64-.26.76.76,0,0,0-.43.13.21.21,0,0,0-.11.16s0,0,0,.06,0,0,.07.07a1.52,1.52,0,0,0,.51.16h0a2.73,2.73,0,0,1,.65.2,1.12,1.12,0,0,1,.5.42.94.94,0,0,1,.13.46,1,1,0,0,1-.44.81,1.56,1.56,0,0,1-.91.28,2,2,0,0,1-1.25-.48A.39.39,0,0,1,351.36,192.3Z" style="fill:#263238"></path><path d="M356.66,190.19a.4.4,0,0,1-.4.38h-.17v2a.39.39,0,0,1,0,.77.78.78,0,0,1-.78-.77v-2h-.2a.39.39,0,1,1,0-.77h.2v-1a.39.39,0,0,1,.39-.39.38.38,0,0,1,.39.39v1h.17A.4.4,0,0,1,356.66,190.19Z" style="fill:#263238"></path><path d="M357.71,192.3a.36.36,0,0,1,.53-.05,1.26,1.26,0,0,0,.77.3.9.9,0,0,0,.47-.13.28.28,0,0,0,.13-.21.14.14,0,0,0,0-.07.24.24,0,0,0-.09-.08,1.67,1.67,0,0,0-.56-.2h0a2.72,2.72,0,0,1-.61-.18,1.12,1.12,0,0,1-.48-.41.81.81,0,0,1-.12-.44,1,1,0,0,1,.41-.77,1.5,1.5,0,0,1,.86-.26,1.73,1.73,0,0,1,1.05.39.38.38,0,0,1,.12.51.37.37,0,0,1-.52.1,1.28,1.28,0,0,0-.65-.26.72.72,0,0,0-.42.13.21.21,0,0,0-.11.16s0,0,0,.06,0,0,.07.07a1.52,1.52,0,0,0,.51.16h0a2.73,2.73,0,0,1,.65.2,1.12,1.12,0,0,1,.5.42.94.94,0,0,1,.13.46,1,1,0,0,1-.44.81,1.56,1.56,0,0,1-.91.28,2,2,0,0,1-1.25-.48A.39.39,0,0,1,357.71,192.3Z" style="fill:#263238"></path><path d="M303.06,200.48q9.26-.14,18.5-.19l18.5-.06,18.49.06q9.26,0,18.5.19-9.26.14-18.5.19l-18.49.06-18.5-.06Q312.3,200.63,303.06,200.48Z" style="fill:#263238"></path><path d="M303.06,205.8q5.94-.13,11.89-.19l11.89-.06,11.89.06q5.94.06,11.88.19-5.94.15-11.88.2l-11.89.05L315,206Q309,205.94,303.06,205.8Z" style="fill:#263238"></path><path d="M303.06,211.13q8.42-.13,16.83-.19l16.83-.06,16.82.06q8.41,0,16.83.19-8.42.13-16.83.19l-16.82.06-16.83-.06Q311.47,211.27,303.06,211.13Z" style="fill:#263238"></path><polygon points="303.06 216.45 313.58 216.33 324.09 216.28 345.13 216.2 366.16 216.28 376.68 216.33 387.19 216.45 376.68 216.57 366.16 216.62 345.13 216.7 324.09 216.62 313.58 216.57 303.06 216.45" style="fill:#263238"></polygon><path d="M312.69,302.83H311l-.34.92a.39.39,0,0,1-.36.24l-.14,0a.4.4,0,0,1-.23-.5l1.55-4.13a.39.39,0,0,1,.37-.24.38.38,0,0,1,.37.24l1.55,4.13a.4.4,0,0,1-.23.5l-.13,0a.38.38,0,0,1-.36-.24Zm-.29-.77-.57-1.5-.57,1.5Z" style="fill:#263238"></path><path d="M314.63,302.25h0v-2.77a.38.38,0,0,1,.38-.38.37.37,0,0,1,.38.38v1.31a1.69,1.69,0,0,1,.94-.29,1.75,1.75,0,1,1-.95,3.2.37.37,0,0,1-.37.3.38.38,0,0,1-.38-.38Zm.76,0a1,1,0,0,0,.28.69.92.92,0,0,0,.66.29.9.9,0,0,0,.66-.29,1,1,0,0,0,.28-.69,1,1,0,0,0-.28-.71.9.9,0,0,0-.66-.29.92.92,0,0,0-.66.29A1,1,0,0,0,315.39,302.25Z" style="fill:#263238"></path><path d="M319.57,303.48a1.75,1.75,0,0,1-.48-1.23,1.82,1.82,0,0,1,.48-1.23,1.64,1.64,0,0,1,1.21-.53A1.55,1.55,0,0,1,322,301a1.78,1.78,0,0,1,.49,1.23,1.71,1.71,0,0,1-.49,1.23,1.55,1.55,0,0,1-1.17.53A1.64,1.64,0,0,1,319.57,303.48Zm.28-1.23a1.09,1.09,0,0,0,.26.74.92.92,0,0,0,.67.26.9.9,0,0,0,.64-.26,1.06,1.06,0,0,0,.28-.74,1,1,0,0,0-.28-.73,1,1,0,0,0-.64-.27,1,1,0,0,0-.67.27A1.07,1.07,0,0,0,319.85,302.25Z" style="fill:#263238"></path><path d="M324.9,304a1.47,1.47,0,0,1-1.46-1.46v-1.67a.38.38,0,0,1,.75,0v1.67a.71.71,0,0,0,.71.72.73.73,0,0,0,.74-.72v-1.67a.36.36,0,0,1,.36-.37.38.38,0,0,1,.38.37v1.67A1.48,1.48,0,0,1,324.9,304Z" style="fill:#263238"></path><path d="M329.38,300.87a.4.4,0,0,1-.39.39h-.18v1.95a.39.39,0,0,1,.39.4.38.38,0,0,1-.39.38.78.78,0,0,1-.77-.78v-1.95h-.21a.39.39,0,0,1-.38-.39.38.38,0,0,1,.38-.38H328v-1a.38.38,0,0,1,.39-.38.37.37,0,0,1,.38.38v1H329A.39.39,0,0,1,329.38,300.87Z" style="fill:#263238"></path><polygon points="309.46 311.17 333.47 311.05 357.49 311 405.52 310.92 453.55 311 477.57 311.05 501.58 311.17 477.57 311.29 453.55 311.34 405.52 311.42 357.49 311.33 333.47 311.29 309.46 311.17" style="fill:#263238"></polygon><polygon points="309.46 316.49 325.43 316.37 341.4 316.33 373.34 316.24 405.28 316.33 421.25 316.37 437.23 316.49 421.25 316.62 405.28 316.66 373.34 316.74 341.4 316.66 325.43 316.61 309.46 316.49" style="fill:#263238"></polygon><polygon points="309.46 321.82 331.44 321.69 353.42 321.65 397.39 321.57 441.36 321.65 463.34 321.69 485.32 321.82 463.34 321.94 441.36 321.98 397.39 322.06 353.42 321.98 331.44 321.94 309.46 321.82" style="fill:#263238"></polygon><polygon points="309.46 327.14 336.56 327.02 363.66 326.97 417.87 326.89 472.07 326.97 499.17 327.02 526.28 327.14 499.17 327.26 472.07 327.31 417.87 327.39 363.66 327.31 336.56 327.26 309.46 327.14" style="fill:#263238"></polygon><path d="M310.19,341.74v-4.13a.38.38,0,0,1,.38-.39h1a1.34,1.34,0,0,1,1.33,1.33,1.31,1.31,0,0,1-.27.8,1.52,1.52,0,0,1,.71,1.27,1.5,1.5,0,0,1-1.5,1.5h-1.27A.38.38,0,0,1,310.19,341.74Zm.77-2.62h.61a.57.57,0,0,0,.55-.57.55.55,0,0,0-.55-.55H311Zm0,2.23h.88a.73.73,0,0,0,.72-.73.72.72,0,0,0-.72-.72H311Z" style="fill:#263238"></path><path d="M314.75,337.75a.37.37,0,0,1-.38.38.38.38,0,0,1-.38-.38v-.15a.38.38,0,0,1,.38-.38.37.37,0,0,1,.38.38Zm0,1.26v2.74a.37.37,0,0,1-.38.37.37.37,0,0,1-.38-.37V339a.37.37,0,0,1,.38-.38A.37.37,0,0,1,314.75,339Z" style="fill:#263238"></path><path d="M316.28,341.61a1.71,1.71,0,0,1-.49-1.23,1.78,1.78,0,0,1,.49-1.23,1.65,1.65,0,0,1,1.2-.53,1.59,1.59,0,0,1,1.17.53,1.74,1.74,0,0,1,.49,1.23,1.67,1.67,0,0,1-.49,1.23,1.56,1.56,0,0,1-1.17.54A1.63,1.63,0,0,1,316.28,341.61Zm.28-1.23a1.12,1.12,0,0,0,.25.74.92.92,0,0,0,.67.26.88.88,0,0,0,.64-.26,1.1,1.1,0,0,0,0-1.47,1,1,0,0,0-.64-.26,1,1,0,0,0-.67.26A1.11,1.11,0,0,0,316.56,340.38Z" style="fill:#263238"></path><path d="M323.46,340.39v1.31a1.67,1.67,0,0,1-2.42,1.5.36.36,0,0,1-.16-.5.38.38,0,0,1,.5-.18.77.77,0,0,0,.4.1,1,1,0,0,0,.92-.75,1.62,1.62,0,0,1-2.11-.25,1.76,1.76,0,0,1-.49-1.23,1.84,1.84,0,0,1,.49-1.25,1.68,1.68,0,0,1,1.19-.52,1.57,1.57,0,0,1,.94.3.38.38,0,0,1,.37-.3.37.37,0,0,1,.37.37v1.4Zm-.75,0a1.08,1.08,0,0,0-.27-.72.89.89,0,0,0-.66-.3.87.87,0,0,0-.65.3,1.09,1.09,0,0,0-.28.72,1,1,0,0,0,.28.72.86.86,0,0,0,.65.29.88.88,0,0,0,.66-.29A1,1,0,0,0,322.71,340.39Z" style="fill:#263238"></path><path d="M327.11,339a.39.39,0,0,1-.38.38.68.68,0,0,0-.42.13,1.12,1.12,0,0,0-.32.33,1.94,1.94,0,0,0-.28.59v1.33a.38.38,0,0,1-.39.37.37.37,0,0,1-.37-.37V339a.37.37,0,0,1,.37-.36.38.38,0,0,1,.39.36V339l.14-.14a1.53,1.53,0,0,1,.88-.27A.37.37,0,0,1,327.11,339Z" style="fill:#263238"></path><path d="M330.81,340.38v1.37a.37.37,0,0,1-.37.37.39.39,0,0,1-.37-.3,1.57,1.57,0,0,1-.93.3,1.61,1.61,0,0,1-1.19-.51,1.78,1.78,0,0,1-.47-1.23,1.76,1.76,0,0,1,.47-1.23,1.63,1.63,0,0,1,1.19-.53,1.57,1.57,0,0,1,.93.31.4.4,0,0,1,.37-.31.38.38,0,0,1,.37.38Zm-.74,0a1,1,0,0,0-.28-.72.87.87,0,0,0-1.3,0,1,1,0,0,0-.26.72,1,1,0,0,0,.26.72.89.89,0,0,0,1.3,0A1,1,0,0,0,330.07,340.38Z" style="fill:#263238"></path><path d="M332.18,343.06v-2.67h0V339a.38.38,0,0,1,.37-.37.4.4,0,0,1,.39.29,1.69,1.69,0,0,1,2.64,1.47,1.72,1.72,0,0,1-1.69,1.74,1.64,1.64,0,0,1-.94-.29v1.23a.4.4,0,0,1-.4.38A.38.38,0,0,1,332.18,343.06Zm.77-2.68a.94.94,0,0,0,.27.7.87.87,0,0,0,.67.3.9.9,0,0,0,.66-.3,1,1,0,0,0,.27-.7,1.11,1.11,0,0,0-.27-.71.92.92,0,0,0-.66-.28.89.89,0,0,0-.67.28A1,1,0,0,0,333,340.38Z" style="fill:#263238"></path><path d="M337.58,341.74a.38.38,0,0,1-.39.38.4.4,0,0,1-.38-.28s0-.07,0-.1v-4.13a.39.39,0,0,1,.78,0v1.22a1.56,1.56,0,0,1,.75-.21,1.54,1.54,0,0,1,1.52,1.54v1.58a.37.37,0,0,1-.38.38.38.38,0,0,1-.39-.38v-1.58a.75.75,0,1,0-1.5,0Z" style="fill:#263238"></path><path d="M343.63,339v2.65a1.66,1.66,0,0,1-1.68,1.67,1.59,1.59,0,0,1-.72-.17.36.36,0,0,1-.18-.5.38.38,0,0,1,.5-.15,1,1,0,0,0,.4.1.93.93,0,0,0,.88-.64,1.42,1.42,0,0,1-.67.17,1.48,1.48,0,0,1-1.46-1.47V339a.37.37,0,0,1,.36-.37.36.36,0,0,1,.37.37v1.66a.72.72,0,0,0,.73.71.71.71,0,0,0,.72-.71V339a.36.36,0,0,1,.37-.37A.38.38,0,0,1,343.63,339Z" style="fill:#263238"></path><polygon points="309.46 349.3 333.47 349.18 357.49 349.14 405.52 349.05 453.55 349.14 477.57 349.18 501.58 349.3 477.57 349.43 453.55 349.47 405.52 349.55 357.49 349.47 333.47 349.43 309.46 349.3" style="fill:#263238"></polygon><polygon points="309.46 354.63 325.43 354.5 341.4 354.46 373.34 354.38 405.28 354.46 421.25 354.5 437.23 354.63 421.25 354.75 405.28 354.79 373.34 354.88 341.4 354.79 325.43 354.75 309.46 354.63" style="fill:#263238"></polygon><polygon points="309.46 374.97 333.47 374.85 357.49 374.8 405.52 374.72 453.55 374.8 477.57 374.84 501.58 374.97 477.57 375.09 453.55 375.13 405.52 375.22 357.49 375.13 333.47 375.09 309.46 374.97" style="fill:#263238"></polygon><polygon points="309.46 385.61 335.04 385.49 360.61 385.45 411.77 385.36 462.92 385.45 488.5 385.49 514.08 385.61 488.5 385.74 462.92 385.78 411.77 385.86 360.61 385.78 335.04 385.73 309.46 385.61" style="fill:#263238"></polygon><polygon points="309.46 390.94 336.56 390.81 363.66 390.77 417.87 390.69 472.07 390.77 499.18 390.81 526.28 390.94 499.18 391.06 472.07 391.1 417.87 391.19 363.66 391.1 336.56 391.06 309.46 390.94" style="fill:#263238"></polygon><polygon points="309.46 396.26 334.08 396.14 358.71 396.09 407.96 396.01 457.21 396.09 481.83 396.14 506.46 396.26 481.83 396.38 457.21 396.43 407.96 396.51 358.71 396.42 334.08 396.38 309.46 396.26" style="fill:#263238"></polygon><polygon points="309.46 401.58 330.97 401.46 352.49 401.42 395.52 401.33 438.56 401.42 460.08 401.46 481.59 401.58 460.08 401.7 438.56 401.75 395.52 401.83 352.49 401.75 330.97 401.7 309.46 401.58" style="fill:#263238"></polygon><polygon points="309.46 380.29 325.43 380.17 341.4 380.12 373.34 380.04 405.28 380.12 421.25 380.17 437.23 380.29 421.25 380.41 405.28 380.46 373.34 380.54 341.4 380.45 325.43 380.41 309.46 380.29" style="fill:#263238"></polygon><polygon points="309.46 359.95 331.44 359.83 353.42 359.78 397.39 359.7 441.36 359.78 463.34 359.83 485.32 359.95 463.34 360.07 441.36 360.12 397.39 360.2 353.42 360.12 331.44 360.07 309.46 359.95" style="fill:#263238"></polygon><polygon points="309.46 365.27 336.56 365.15 363.66 365.11 417.87 365.02 472.07 365.11 499.17 365.15 526.28 365.27 499.17 365.39 472.07 365.44 417.87 365.52 363.66 365.44 336.56 365.39 309.46 365.27" style="fill:#263238"></polygon><path d="M299.76,231.86a2.59,2.59,0,0,1,4.19-2,.42.42,0,0,1,.07.56.41.41,0,0,1-.56.07,1.77,1.77,0,0,0-1.13-.38,1.9,1.9,0,0,0-1.26.5,1.73,1.73,0,0,0-.51,1.22,1.68,1.68,0,0,0,.51,1.22,1.86,1.86,0,0,0,1.26.51,1.8,1.8,0,0,0,1.13-.39.4.4,0,0,1,.49.64,2.63,2.63,0,0,1-1.62.54A2.56,2.56,0,0,1,299.76,231.86Z" style="fill:#dbdbdb"></path><path d="M309.1,230.09a2.59,2.59,0,0,1,.71,1.77,2.55,2.55,0,0,1-.71,1.77,2.27,2.27,0,0,1-1.67.75,2.35,2.35,0,0,1-1.72-.75,2.54,2.54,0,0,1-.69-1.77,2.57,2.57,0,0,1,.69-1.77,2.35,2.35,0,0,1,1.72-.75A2.27,2.27,0,0,1,309.1,230.09Zm-.09,1.77a1.79,1.79,0,0,0-.48-1.22,1.47,1.47,0,0,0-1.1-.5,1.53,1.53,0,0,0-1.14.5,1.79,1.79,0,0,0-.48,1.22,1.77,1.77,0,0,0,.48,1.22,1.54,1.54,0,0,0,1.14.51,1.48,1.48,0,0,0,1.1-.51A1.77,1.77,0,0,0,309,231.86Z" style="fill:#dbdbdb"></path><path d="M311.77,234a.38.38,0,0,1-.76,0v-4.07h0a.38.38,0,0,1,.15-.32.4.4,0,0,1,.54.08l2.26,3.13v-2.88a.38.38,0,0,1,.76,0V234a.38.38,0,0,1-.38.38.36.36,0,0,1-.29-.14.08.08,0,0,1,0,0l-2.24-3.11Z" style="fill:#dbdbdb"></path><path d="M319.33,230.26h-1.12V234a.37.37,0,0,1-.38.38.38.38,0,0,1-.39-.38v-3.74h-1.1a.39.39,0,0,1-.39-.39.38.38,0,0,1,.39-.39h3a.38.38,0,0,1,.38.39A.39.39,0,0,1,319.33,230.26Z" style="fill:#dbdbdb"></path><path d="M322.7,233.23H321l-.34.91a.4.4,0,0,1-.37.24.27.27,0,0,1-.13,0,.39.39,0,0,1-.23-.5l1.54-4.13a.4.4,0,0,1,.38-.24.39.39,0,0,1,.37.24l1.55,4.13a.39.39,0,0,1-.24.5.25.25,0,0,1-.13,0,.39.39,0,0,1-.36-.24Zm-.29-.77-.56-1.51-.57,1.51Z" style="fill:#dbdbdb"></path><path d="M324.23,231.86a2.59,2.59,0,0,1,4.18-2,.4.4,0,0,1-.49.63,1.74,1.74,0,0,0-1.12-.38,1.9,1.9,0,0,0-1.27.5,1.78,1.78,0,0,0-.51,1.22,1.72,1.72,0,0,0,.51,1.22,1.86,1.86,0,0,0,1.27.51,1.75,1.75,0,0,0,1.12-.39.42.42,0,0,1,.56.08.41.41,0,0,1-.07.56,2.62,2.62,0,0,1-1.61.54A2.55,2.55,0,0,1,324.23,231.86Z" style="fill:#dbdbdb"></path><path d="M332.84,230.26h-1.12V234a.37.37,0,0,1-.38.38A.38.38,0,0,1,331,234v-3.74h-1.1a.39.39,0,0,1-.39-.39.38.38,0,0,1,.39-.39h3a.38.38,0,0,1,.38.39A.39.39,0,0,1,332.84,230.26Z" style="fill:#dbdbdb"></path><path d="M336.52,229.87a.38.38,0,0,1,.39-.39.39.39,0,0,1,.39.39V234a.38.38,0,0,1-.39.38.38.38,0,0,1-.39-.38Z" style="fill:#dbdbdb"></path><path d="M339.38,234a.38.38,0,0,1-.38.38.37.37,0,0,1-.38-.38v-4.07h0a.38.38,0,0,1,.15-.32.39.39,0,0,1,.53.08l2.27,3.13v-2.88a.38.38,0,0,1,.37-.38.4.4,0,0,1,.39.38V234a.39.39,0,0,1-.39.38.35.35,0,0,1-.28-.14.08.08,0,0,1,0,0l-2.24-3.11Z" style="fill:#dbdbdb"></path><path d="M344,234v-4.13a.38.38,0,0,1,.38-.39h2.29a.39.39,0,1,1,0,.78h-1.9v1.28h1.64a.39.39,0,0,1,0,.78h-1.64V234a.38.38,0,0,1-.39.38A.37.37,0,0,1,344,234Z" style="fill:#dbdbdb"></path><path d="M352,230.09a2.59,2.59,0,0,1,.71,1.77,2.55,2.55,0,0,1-.71,1.77,2.29,2.29,0,0,1-1.68.75,2.34,2.34,0,0,1-1.71-.75,2.5,2.5,0,0,1-.7-1.77,2.54,2.54,0,0,1,.7-1.77,2.34,2.34,0,0,1,1.71-.75A2.29,2.29,0,0,1,352,230.09Zm-.09,1.77a1.79,1.79,0,0,0-.48-1.22,1.5,1.5,0,0,0-2.24,0,1.79,1.79,0,0,0-.48,1.22,1.77,1.77,0,0,0,.48,1.22,1.48,1.48,0,0,0,2.24,0A1.77,1.77,0,0,0,351.88,231.86Z" style="fill:#dbdbdb"></path><polygon points="299.76 241.56 335.18 241.32 370.6 241.23 441.44 241.06 512.29 241.23 547.71 241.32 583.13 241.56 547.71 241.81 512.29 241.9 441.44 242.06 370.6 241.89 335.18 241.81 299.76 241.56" style="fill:#ebebeb"></polygon><path d="M309.46,249.89q5.94-.15,11.89-.2l11.88-.05,11.89.05q6,.06,11.89.2-5.94.13-11.89.19l-11.89.06-11.88-.06Q315.4,250,309.46,249.89Z" style="fill:#263238"></path><path d="M309.46,256.35q8.42-.14,16.83-.19l16.82-.06,16.83.06q8.42,0,16.83.19-8.41.13-16.83.19l-16.83.06-16.82-.06Q317.88,256.5,309.46,256.35Z" style="fill:#263238"></path><polygon points="309.46 263.15 319.97 263.03 330.49 262.98 351.52 262.9 372.56 262.98 383.07 263.03 393.59 263.15 383.07 263.27 372.56 263.31 351.52 263.4 330.49 263.31 319.97 263.27 309.46 263.15" style="fill:#263238"></polygon><g id="freepik--TEfYE6--inject-7"><path d="M305.54,255l-.1.09-1.54,1.47a.24.24,0,0,1-.36,0L302,255.06l-.06-.07a.28.28,0,0,1,.13,0h3.32A.27.27,0,0,1,305.54,255Z" style="fill:#FFC727"></path><path d="M305.54,257.72a.7.7,0,0,1-.14,0h-3.34a.35.35,0,0,1-.17,0l1.28-1.22.25.23.1.1a.28.28,0,0,0,.4,0l.34-.33,1.28,1.21Z" style="fill:#FFC727"></path><path d="M303,256.35c-.42.41-.84.8-1.25,1.21,0,0,0,0,0-.06,0-.76,0-1.51,0-2.27,0,0,0,0,0-.07Z" style="fill:#FFC727"></path><path d="M305.67,257.54l-.47-.44-.75-.72,0,0c.41-.41.84-.8,1.24-1.21C305.68,255.2,305.69,257.48,305.67,257.54Z" style="fill:#FFC727"></path></g><g id="freepik--aiZGp2--inject-7"><path d="M302.54,262.25a3,3,0,0,0-.2.89h-.79v-.08a2.87,2.87,0,0,1,.05-.31,2.22,2.22,0,0,1,.18-.49h.75Z" style="fill:#FFC727"></path><path d="M302.52,264.25h-.75a2.62,2.62,0,0,1-.18-.56,2.51,2.51,0,0,1,0-.27h0v0h.78s0,0,0,0a1.21,1.21,0,0,0,0,.19c0,.1,0,.2.05.3s.06.24.1.36Z" style="fill:#FFC727"></path><path d="M305.58,264.48h0l-.2.27a2,2,0,0,1-.31.27,1.52,1.52,0,0,1-.34.22,2.67,2.67,0,0,1-.36.14,1.55,1.55,0,0,1-.31.06h0a2.6,2.6,0,0,0,.81-.95h.76Z" style="fill:#FFC727"></path><path d="M304.85,263.14h-1v-.89h.81a2.43,2.43,0,0,1,.17.52c0,.1,0,.19,0,.29Z" style="fill:#FFC727"></path><path d="M304.85,263.38a.13.13,0,0,0,0,.06c0,.05,0,.1,0,.15a1.55,1.55,0,0,1,0,.21,2.13,2.13,0,0,1-.13.43l0,0h-.82v-.87Z" style="fill:#FFC727"></path><path d="M303.6,262.25v.9h-1v-.07c0-.05,0-.1,0-.15s0-.15,0-.23a1.91,1.91,0,0,1,.15-.44h.79Z" style="fill:#FFC727"></path><path d="M303.6,263.39v.86h-.82a2.42,2.42,0,0,1-.13-.46,2,2,0,0,1,0-.24.76.76,0,0,1,0-.15h1Z" style="fill:#FFC727"></path><path d="M305.94,263.15h-.84a2.8,2.8,0,0,0-.2-.9h.8a2.2,2.2,0,0,1,.2.56c0,.1,0,.21,0,.31Z" style="fill:#FFC727"></path><path d="M305.94,263.37a.13.13,0,0,1,0,.06,1.79,1.79,0,0,1,0,.23,2.24,2.24,0,0,1-.16.5l0,.08h-.79l0-.08a3.11,3.11,0,0,0,.11-.41,3,3,0,0,0,0-.31v-.07h.84Z" style="fill:#FFC727"></path><path d="M305.56,262h-.77a2.31,2.31,0,0,0-.36-.54,1.67,1.67,0,0,0-.28-.25l-.15-.12h0v0a2.24,2.24,0,0,1,1.57.95Z" style="fill:#FFC727"></path><path d="M303.46,265.45h0l-.23,0a2.23,2.23,0,0,1-.43-.16,1.8,1.8,0,0,1-.43-.29,1.28,1.28,0,0,1-.26-.26,1.84,1.84,0,0,1-.17-.22h.71a2.8,2.8,0,0,0,.25.41,2.35,2.35,0,0,0,.3.33,1.51,1.51,0,0,0,.28.22Z" style="fill:#FFC727"></path><path d="M303.45,261.1l-.11.07a2.42,2.42,0,0,0-.33.31,2.45,2.45,0,0,0-.34.5l0,0h-.72a2.17,2.17,0,0,1,1.51-.94h0Z" style="fill:#FFC727"></path><path d="M304.55,264.48a2.61,2.61,0,0,1-.34.46,2,2,0,0,1-.39.32v-.78Z" style="fill:#FFC727"></path><path d="M303.6,264.48v.77a2.15,2.15,0,0,1-.7-.77Z" style="fill:#FFC727"></path><path d="M304.52,262h-.69v-.74a2.44,2.44,0,0,1,.39.33A2.55,2.55,0,0,1,304.52,262Z" style="fill:#FFC727"></path><path d="M303.6,261.31V262h-.67A2.07,2.07,0,0,1,303.6,261.31Z" style="fill:#FFC727"></path></g><path d="M305.35,250.61l.33.78-.9-.37a2.34,2.34,0,0,1-1.07.25,1.65,1.65,0,1,1,2-1.61A1.44,1.44,0,0,1,305.35,250.61Z" style="fill:#FFC727"></path><path d="M304.19,280.6v4.14a.39.39,0,0,1-.39.38.37.37,0,0,1-.38-.38v-2.95l-1,1.4a.4.4,0,0,1-.32.16h0a.39.39,0,0,1-.32-.16l-1-1.4v2.95a.39.39,0,0,1-.77,0V280.6a.38.38,0,0,1,.38-.38h0a.36.36,0,0,1,.31.16l1.4,1.93,1.39-1.93a.37.37,0,0,1,.31-.16h0A.39.39,0,0,1,304.19,280.6Z" style="fill:#dbdbdb"></path><path d="M309.44,280.83a2.59,2.59,0,0,1,0,3.54,2.29,2.29,0,0,1-1.68.75,2.32,2.32,0,0,1-1.71-.75,2.59,2.59,0,0,1,0-3.54,2.32,2.32,0,0,1,1.71-.75A2.29,2.29,0,0,1,309.44,280.83Zm-.1,1.77a1.8,1.8,0,0,0-.47-1.23,1.54,1.54,0,0,0-1.11-.49,1.52,1.52,0,0,0-1.13.49,1.77,1.77,0,0,0-.48,1.23,1.72,1.72,0,0,0,.48,1.22,1.53,1.53,0,0,0,1.13.5,1.55,1.55,0,0,0,1.11-.5A1.76,1.76,0,0,0,309.34,282.6Z" style="fill:#dbdbdb"></path><path d="M314.76,284.54a.39.39,0,0,1-.24.49l-.16,0h0a.48.48,0,0,1-.28-.08.57.57,0,0,1-.22-.24,1.85,1.85,0,0,1-.15-.84.49.49,0,0,0-.08-.3.7.7,0,0,0-.21-.21,2.06,2.06,0,0,0-.39-.17h-.83v1.53a.39.39,0,0,1-.39.38.38.38,0,0,1-.39-.38V280.6a.38.38,0,0,1,.39-.38h1.25a1.5,1.5,0,0,1,1.5,1.5,1.47,1.47,0,0,1-.55,1.15,1.24,1.24,0,0,1,.25.26,1.32,1.32,0,0,1,.23.76,1.32,1.32,0,0,0,0,.41A.38.38,0,0,1,314.76,284.54Zm-1-2.82a.72.72,0,0,0-.72-.72h-.86v1.44h.86A.72.72,0,0,0,313.78,281.72Z" style="fill:#dbdbdb"></path><path d="M315.9,284.74V280.6a.37.37,0,0,1,.38-.38h2.29a.4.4,0,0,1,.39.38.41.41,0,0,1-.39.4h-1.9v1.28h1.63a.4.4,0,0,1,.39.38.39.39,0,0,1-.39.39h-1.63v1.29h1.9a.41.41,0,0,1,.39.4.4.4,0,0,1-.39.38h-2.29A.37.37,0,0,1,315.9,284.74Z" style="fill:#dbdbdb"></path><path d="M322.19,280.6a.38.38,0,0,1,.39-.38.39.39,0,0,1,.39.38v4.14a.39.39,0,0,1-.39.38.38.38,0,0,1-.39-.38Z" style="fill:#dbdbdb"></path><path d="M325.05,284.74a.38.38,0,0,1-.76,0v-4.07h0a.37.37,0,0,1,.15-.32.38.38,0,0,1,.53.08l2.27,3.13v-2.88a.37.37,0,0,1,.37-.38.39.39,0,0,1,.39.38v4.07a.39.39,0,0,1-.39.38.38.38,0,0,1-.28-.14l0,0-2.24-3.11Z" style="fill:#dbdbdb"></path><path d="M329.68,284.74V280.6a.38.38,0,0,1,.38-.38h2.29a.39.39,0,0,1,.39.38.4.4,0,0,1-.39.4h-1.89v1.28h1.63a.39.39,0,0,1,.38.38.38.38,0,0,1-.38.39h-1.63v1.69a.39.39,0,0,1-.4.38A.38.38,0,0,1,329.68,284.74Z" style="fill:#dbdbdb"></path><path d="M337.64,280.83a2.56,2.56,0,0,1,0,3.54,2.28,2.28,0,0,1-1.68.75,2.34,2.34,0,0,1-1.71-.75,2.62,2.62,0,0,1,0-3.54,2.34,2.34,0,0,1,1.71-.75A2.28,2.28,0,0,1,337.64,280.83Zm-.09,1.77a1.81,1.81,0,0,0-.48-1.23,1.51,1.51,0,0,0-1.11-.49,1.53,1.53,0,0,0-1.13.49,1.81,1.81,0,0,0-.48,1.23,1.77,1.77,0,0,0,.48,1.22,1.54,1.54,0,0,0,1.13.5,1.52,1.52,0,0,0,1.11-.5A1.77,1.77,0,0,0,337.55,282.6Z" style="fill:#dbdbdb"></path><polygon points="299.76 292.3 335.18 292.06 370.6 291.97 441.44 291.8 512.29 291.97 547.71 292.05 583.13 292.3 547.71 292.54 512.29 292.63 441.44 292.8 370.6 292.63 335.18 292.54 299.76 292.3" style="fill:#ebebeb"></polygon><rect x="532.06" y="246.78" width="51.07" height="12.57" style="fill:#ebebeb"></rect><path d="M536.55,254a.31.31,0,0,1,.44,0,2,2,0,0,0,1.14.46,1.31,1.31,0,0,0,.75-.22.57.57,0,0,0,.26-.44.33.33,0,0,0-.06-.19.47.47,0,0,0-.17-.18,2.65,2.65,0,0,0-.83-.28h0a3.47,3.47,0,0,1-.77-.23,1.29,1.29,0,0,1-.56-.47.93.93,0,0,1-.14-.49,1.13,1.13,0,0,1,.48-.88,1.81,1.81,0,0,1,1-.32,2.42,2.42,0,0,1,1.31.48.32.32,0,0,1,.08.43.31.31,0,0,1-.43.09,1.73,1.73,0,0,0-1-.39,1.14,1.14,0,0,0-.67.21.48.48,0,0,0-.23.38.25.25,0,0,0,0,.16.6.6,0,0,0,.16.16,2.09,2.09,0,0,0,.75.26h0a3.28,3.28,0,0,1,.82.26,1.39,1.39,0,0,1,.6.49,1,1,0,0,1,.15.51,1.15,1.15,0,0,1-.52.93,1.83,1.83,0,0,1-1.11.34,2.58,2.58,0,0,1-1.53-.59A.32.32,0,0,1,536.55,254Z" style="fill:#263238"></path><path d="M540.41,253.55a1.48,1.48,0,0,1,1.46-1.5,1.42,1.42,0,0,1,1.44,1.39v.09a.29.29,0,0,1-.31.24h-1.91a.81.81,0,0,0,.2.39.88.88,0,0,0,.58.27.93.93,0,0,0,.62-.15.34.34,0,0,1,.45,0,.27.27,0,0,1,0,.39,1.55,1.55,0,0,1-1.07.39A1.48,1.48,0,0,1,540.41,253.55Zm.65-.29h1.7a1,1,0,0,0-.89-.64A.85.85,0,0,0,541.06,253.26Z" style="fill:#263238"></path><path d="M546.77,253.3v1.43a.31.31,0,0,1-.31.32.32.32,0,0,1-.32-.32V253.3a.61.61,0,0,0-.62-.61.6.6,0,0,0-.6.61v1.43a.13.13,0,0,1,0,.06.33.33,0,0,1-.32.26.32.32,0,0,1-.32-.32v-2.36a.32.32,0,0,1,.32-.32.31.31,0,0,1,.29.19,1.15,1.15,0,0,1,.64-.19A1.26,1.26,0,0,1,546.77,253.3Z" style="fill:#263238"></path><path d="M550.54,254.73a.32.32,0,0,1-.64.06,1.42,1.42,0,0,1-.81.26,1.5,1.5,0,0,1,0-3,1.46,1.46,0,0,1,.8.25v-1.12a.33.33,0,0,1,.33-.33.32.32,0,0,1,.32.33v2.37h0Zm-1.45-2a.8.8,0,0,0-.57.24.86.86,0,0,0-.24.61.83.83,0,0,0,.24.59.77.77,0,0,0,.57.25.75.75,0,0,0,.56-.25.83.83,0,0,0,.24-.59.86.86,0,0,0-.24-.61A.78.78,0,0,0,549.09,252.71Z" style="fill:#263238"></path><path d="M557.26,251.18v3.54a.33.33,0,0,1-.33.33.33.33,0,0,1-.33-.33V252.2l-.87,1.2a.31.31,0,0,1-.27.13h0a.31.31,0,0,1-.27-.13l-.86-1.2v2.52a.34.34,0,0,1-.67,0v-3.54a.33.33,0,0,1,.33-.33h0a.33.33,0,0,1,.27.14l1.19,1.66,1.19-1.66a.33.33,0,0,1,.27-.14h0A.34.34,0,0,1,557.26,251.18Z" style="fill:#263238"></path><path d="M558.44,253.55a1.49,1.49,0,0,1,1.47-1.5,1.44,1.44,0,0,1,1.44,1.39v0s0,.05,0,.06a.28.28,0,0,1-.31.24h-1.91a.83.83,0,0,0,.21.39.88.88,0,0,0,.58.27.93.93,0,0,0,.62-.15.34.34,0,0,1,.45,0,.27.27,0,0,1,0,.39,1.57,1.57,0,0,1-1.07.39A1.49,1.49,0,0,1,558.44,253.55Zm.66-.29h1.69a1,1,0,0,0-.88-.64A.84.84,0,0,0,559.1,253.26Z" style="fill:#263238"></path><path d="M562.16,254.19a.31.31,0,0,1,.45,0,1.1,1.1,0,0,0,.66.26.83.83,0,0,0,.41-.11.3.3,0,0,0,.11-.18.08.08,0,0,0,0-.06.19.19,0,0,0-.08-.08,1.31,1.31,0,0,0-.48-.16h0a2.74,2.74,0,0,1-.53-.16,1.06,1.06,0,0,1-.41-.35.7.7,0,0,1-.1-.38.84.84,0,0,1,.35-.66,1.32,1.32,0,0,1,.74-.22,1.56,1.56,0,0,1,.9.33.34.34,0,0,1,.09.45.32.32,0,0,1-.44.08,1,1,0,0,0-.55-.22.62.62,0,0,0-.36.11c-.08,0-.1.1-.1.13s0,0,0,0a.11.11,0,0,0,.06.06,1.22,1.22,0,0,0,.44.15h0a2.16,2.16,0,0,1,.56.18.89.89,0,0,1,.42.35.72.72,0,0,1,.12.4.84.84,0,0,1-.38.69,1.36,1.36,0,0,1-.78.24,1.78,1.78,0,0,1-1.07-.41A.33.33,0,0,1,562.16,254.19Z" style="fill:#263238"></path><path d="M565.05,254.19a.31.31,0,0,1,.45,0,1.1,1.1,0,0,0,.66.26.8.8,0,0,0,.41-.11c.09-.08.11-.14.11-.18a.08.08,0,0,0,0-.06s0-.05-.08-.08a1.31,1.31,0,0,0-.48-.16h0a2.44,2.44,0,0,1-.52-.16,1,1,0,0,1-.42-.35.8.8,0,0,1-.1-.38.87.87,0,0,1,.35-.66,1.34,1.34,0,0,1,.74-.22,1.56,1.56,0,0,1,.9.33.35.35,0,0,1,.1.45.33.33,0,0,1-.45.08,1,1,0,0,0-.55-.22.62.62,0,0,0-.36.11c-.08,0-.09.1-.09.13a.07.07,0,0,0,0,0,.11.11,0,0,0,.06.06,1.22,1.22,0,0,0,.44.15h0a2,2,0,0,1,.56.18,1,1,0,0,1,.43.35.8.8,0,0,1,.11.4.84.84,0,0,1-.38.69,1.34,1.34,0,0,1-.78.24,1.77,1.77,0,0,1-1.06-.41A.33.33,0,0,1,565.05,254.19Z" style="fill:#263238"></path><path d="M570.69,253.56v1.17a.32.32,0,0,1-.32.32.31.31,0,0,1-.31-.26,1.32,1.32,0,0,1-.8.26,1.4,1.4,0,0,1-1-.44,1.56,1.56,0,0,1,0-2.11,1.4,1.4,0,0,1,1-.45,1.33,1.33,0,0,1,.8.27.32.32,0,0,1,.31-.27.33.33,0,0,1,.32.33Zm-.64,0a.91.91,0,0,0-.23-.62.77.77,0,0,0-.56-.25.73.73,0,0,0-.56.25.91.91,0,0,0-.23.62,1,1,0,0,0,.23.62.75.75,0,0,0,.56.23.79.79,0,0,0,.56-.23A1,1,0,0,0,570.05,253.56Z" style="fill:#263238"></path><path d="M574.75,253.57v1.12a1.44,1.44,0,0,1-1.44,1.43,1.29,1.29,0,0,1-.62-.15.31.31,0,0,1-.15-.43.33.33,0,0,1,.43-.15.69.69,0,0,0,.34.09.81.81,0,0,0,.79-.65,1.33,1.33,0,0,1-.79.25,1.37,1.37,0,0,1-1-.46,1.5,1.5,0,0,1-.42-1.06,1.55,1.55,0,0,1,.42-1.06,1.4,1.4,0,0,1,1-.45,1.42,1.42,0,0,1,.81.25.32.32,0,0,1,.32-.25.31.31,0,0,1,.31.32v1.19Zm-.64,0a.9.9,0,0,0-.23-.61.73.73,0,0,0-1.12,0,.91.91,0,0,0-.24.61.88.88,0,0,0,.24.62.75.75,0,0,0,1.12,0A.87.87,0,0,0,574.11,253.56Z" style="fill:#263238"></path><path d="M575.82,253.55a1.49,1.49,0,0,1,1.47-1.5,1.43,1.43,0,0,1,1.44,1.39v.09a.3.3,0,0,1-.32.24h-1.9a.73.73,0,0,0,.2.39.88.88,0,0,0,.58.27.93.93,0,0,0,.62-.15.34.34,0,0,1,.45,0,.27.27,0,0,1,0,.39,1.55,1.55,0,0,1-1.07.39A1.49,1.49,0,0,1,575.82,253.55Zm.66-.29h1.69a1,1,0,0,0-.88-.64A.85.85,0,0,0,576.48,253.26Z" style="fill:#263238"></path></g><g id="freepik--Floor--inject-7"><polygon points="50.72 434.99 131.79 434.75 212.86 434.66 375 434.49 537.14 434.66 618.21 434.75 699.28 434.99 618.21 435.24 537.14 435.32 375 435.49 212.86 435.32 131.79 435.23 50.72 434.99" style="fill:#263238"></polygon></g><g id="freepik--character-1--inject-7"><rect x="168.62" y="103.08" width="94.54" height="94.54" style="fill:#fff"></rect><rect x="172.85" y="107.31" width="86.08" height="86.08" style="fill:#dbdbdb"></rect><path d="M250.16,148.44a.4.4,0,0,1-.27.45l-1.59.28c-1.85-3.57-3.72-6.36-3.19-5.25a19.21,19.21,0,0,1,1.63,5.52l-3.14.51c-2-6.43-4.11-11.13-3.84-9.64,1.07,6,.93,8,.74,10.14-7.58,1.2-17.54,2.67-24.76,3.57-1.24-3.54-2.41-7.38-2.5-7.1a18.93,18.93,0,0,0-.47,7.47c-2.3.27-4.14.45-5.27.5,0,0-.88-3-1.07-4a21.2,21.2,0,0,1,0-7.74,37.65,37.65,0,0,1,2.56-7.47s0,0,0-.06v0a21.81,21.81,0,0,0,1.4-5s0,0,0,0a21.17,21.17,0,0,0,.19-3.7c-.16-4.52,1.93-8.69,6-10.34,7.12-8.38,15.45-6.12,18.5-.64.29.54.59,1.15.88,1.83v0c1.1,2.5,2.21,5.79,3.17,8.31a0,0,0,0,0,0,0s0,0,0,0h0a25.88,25.88,0,0,0,1.28,2.9C243,133.5,247.88,135.65,250.16,148.44Z" style="fill:#263238"></path><path d="M214.9,118a8.54,8.54,0,0,0-4.14,7.37,21.73,21.73,0,0,1-.49,5.69,19.88,19.88,0,0,1-2.64,5.27,14.62,14.62,0,0,0-2.73,8.44A24.85,24.85,0,0,0,207,154.84s0,0,0,0a26.26,26.26,0,0,1-1.55-10.55c.21-3.62,2-6.08,3.73-9a14.83,14.83,0,0,0,2.22-7.59,17.92,17.92,0,0,1,.3-4.91,9.73,9.73,0,0,1,3.42-4.44A.19.19,0,0,0,214.9,118Z" style="fill:#263238"></path><path d="M245.65,133.55c-2.23-2.33-4.5-4.27-6-7.3-1.36-2.75-2.29-5.73-3.67-8.48,0,0-.09,0-.07,0,2.2,4.92,3.09,10,6.86,14a33.62,33.62,0,0,1,5.56,6.75,25,25,0,0,1,2.88,9c0,.11.16.09.16,0A20.71,20.71,0,0,0,245.65,133.55Z" style="fill:#263238"></path><path d="M217.17,116.43c1.17-.27,3.06-6.38-.66-9.89s-9.42-.81-7.89,4.6C209.59,114.56,214.69,117,217.17,116.43Z" style="fill:#263238"></path><path d="M210.82,105.42a7,7,0,0,0-2.89,3.65,4.23,4.23,0,0,0,.72,4.18,8.54,8.54,0,0,0,3.82,2.53,12.75,12.75,0,0,0,2.3.6,6.67,6.67,0,0,0,2.4.05,5.91,5.91,0,0,1-2.44.39,10.93,10.93,0,0,1-2.47-.37,8.26,8.26,0,0,1-4.31-2.63,4.73,4.73,0,0,1-.67-5A6.22,6.22,0,0,1,210.82,105.42Z" style="fill:#263238"></path><path d="M230.33,146.73c13.61,14.26,30.53,41.28,27.18,47.2-3.73,6.61-23.35-13.69-22.73-14.67.52-.82-6.26-16-11.19-29.1S227,143.2,230.33,146.73Z" style="fill:#f7a9a0"></path><path d="M247,163.83l-19.54,3.52s-4.88-13.85-5.84-21.53c-.55-4.31,2-4.49,5.17-2.2C237.94,151.63,247,163.83,247,163.83Z" style="fill:#455a64"></path><path d="M227.59,164.15a132.45,132.45,0,0,1,16.48-3.26s.06.12,0,.13c-4.44,1.14-13.45,2.78-16.47,3.31C227.57,164.34,227.53,164.16,227.59,164.15Z" style="fill:#263238"></path><path d="M242.84,164.58l-15.38,2.77s-4.87-13.85-5.84-21.53c-.35-2.76.56-3.83,2.1-3.64Z" style="opacity:0.1"></path><path d="M240.94,193.35H197.45s2-28.31,14.69-46.86c3.67-5.39,10.77-4.93,14.46-1.61.93.83,13.43,17.16,13.94,20,.85,4.62-3.25,9.62-3.25,9.62Z" style="fill:#455a64"></path><path d="M221.35,171.7a46.26,46.26,0,0,1,6.85.62c1.12.2,2.23.46,3.34.73.55.14,1.1.26,1.66.38a7,7,0,0,0,1.77.2,0,0,0,0,1,0,.08,11.83,11.83,0,0,1-1.68.09,11,11,0,0,1-1.62-.18c-1.15-.2-2.28-.44-3.42-.65-2.3-.42-4.59-.83-6.92-1.08C221.23,171.88,221.24,171.69,221.35,171.7Z" style="fill:#263238"></path><path d="M215.86,174.13a48.33,48.33,0,0,1,5.63-.68c.95-.06,1.89-.06,2.84,0l1.36.05c.5,0,1,.12,1.49.14,0,0,0,.09,0,.09-.47,0-.94.06-1.41.09l-1.41.06-2.84.14c-1.89.07-3.77.16-5.66.3C215.76,174.29,215.76,174.14,215.86,174.13Z" style="fill:#263238"></path><path d="M257.52,194.06c-1.92,3.49-11.7,2.79-32.15,1.94-2.83-.12-7.37-20.31-4.34-20.34,3.82,0,18.63.65,19.7.83C249.82,178.07,259.2,191,257.52,194.06Z" style="fill:#f7a9a0"></path><path d="M225.15,175.71s-8.57-.74-13.2.27a30.46,30.46,0,0,0-12.89,6.75c-4,3.51-11.23,14.74-8.35,17.39,2.6,2.39,9.41-9.46,9.41-9.46s-8.94,10.94-5.28,13.25S205.62,192,205.62,192s-8.93,11.45-4.78,13.23c3.14,1.35,10.32-11.16,10.32-11.16s-7.61,9.89-4.44,11.42c3.5,1.69,10.85-9.45,10.85-9.45,8.7,2.53,13.88.17,17.36-2C235.77,193.59,225.15,175.71,225.15,175.71Z" style="fill:#f7a9a0"></path><path d="M203,186.67c-1.1,1.25-2.22,2.51-3.2,3.85s-1.92,2.71-2.77,4.14a28.87,28.87,0,0,0-2.79,5.86,61.66,61.66,0,0,1,5.94-9.75c1-1.33,1.89-2.72,2.87-4.06C203,186.68,203,186.64,203,186.67Z" style="fill:#263238"></path><path d="M207.87,190.13c-1.33,1.66-2.71,3.25-4,5s-2.29,3.43-3.42,5.22c-.09.14,0,.14.11,0,1.2-1.74,2.44-3.25,3.67-5s2.37-3.5,3.65-5.17C207.93,190.13,207.89,190.11,207.87,190.13Z" style="fill:#263238"></path><path d="M212.62,192.34a47.52,47.52,0,0,0-5.5,8c-.08.14,0,.13.15,0,1.77-2.71,3.14-4.85,5.43-8C212.74,192.37,212.66,192.29,212.62,192.34Z" style="fill:#263238"></path><path d="M249,180.17c-1.65-1.26-6.37-4.29-11.3-4-.05,0-.06.09,0,.09,4,.32,9.55,2.87,11.25,3.95C249,180.26,249.06,180.2,249,180.17Z" style="fill:#263238"></path><path d="M215.84,151.91c-7.09,16-25.93,40.24-32.73,39.94-7.58-.32,2.76-20.55,3.39-21.52,3.5-5.44,12.7-14.68,22.83-22.28C217.83,141.67,217.82,147.46,215.84,151.91Z" style="fill:#f7a9a0"></path><path d="M181.7,191.47c-3.95-2.45-4.33-11.77-7-33.16-.37-3,19.48-8.45,20-5.31.71,3.95,1,17.71,1,18.86C195.69,181.57,184.84,193.41,181.7,191.47Z" style="fill:#f7a9a0"></path><path d="M174.85,158.79c-.79-2.26-3.58-13-3.67-16.16s.33-12.16,2.72-12.46,2.48,2.34,2.48,2.34.78-3.78,3.21-3.88,2.44,4,2.44,4,1.09-3.82,3.52-3.74,1.75,4.24,1.75,4.24.82-3.55,2.8-2.64c2.38,1.1.12,7.47.47,10.92.08.78,2.76,15.76,2.76,15.76Z" style="fill:#f7a9a0"></path><path d="M187.35,132.81c-1.65,4.69-1.56,7-.47,11.79,0,.09-.12.15-.15.05-1.49-4.57-2-7.49.4-11.93C187.25,132.5,187.43,132.59,187.35,132.81Z" style="fill:#263238"></path><path d="M182.17,132.31c-1.29,5-1.21,7.55-.44,12.63,0,.07-.11.09-.13,0-1.17-4.92-1.64-7.84.31-12.68C182,132.06,182.23,132.08,182.17,132.31Z" style="fill:#263238"></path><path d="M176.43,132.77c-.9,4.95-.94,7.73.44,12.56a.09.09,0,1,1-.17.06,16.67,16.67,0,0,1-.43-12.63C176.37,132.46,176.48,132.46,176.43,132.77Z" style="fill:#263238"></path><path d="M194.05,158.69a61.59,61.59,0,0,0,3.48-8.28c.69-2.72-.47-13.78-2.87-13.66-3.1.14-3.69,6.66-3.57,9.89,0,0-7.17.34-8.61,4.92S194.05,158.69,194.05,158.69Z" style="fill:#f7a9a0"></path><path d="M193.82,137.07c-2.73,2.17-2.29,6.4-2.4,9.54a.29.29,0,0,1-.39.28c-3,.34-7.13,1.69-8.64,4.5a.07.07,0,0,1-.13-.06c1.21-3.23,5.16-4.89,8.47-5.05.06-3.23-.19-7.49,3.07-9.24C193.82,137,193.84,137.05,193.82,137.07Z" style="fill:#263238"></path><path d="M195.33,160.1c.22,1.68.38,3.38.5,5.08s.2,3.4.24,5.1a20.41,20.41,0,0,1-.47,5.11,17.76,17.76,0,0,1-1.77,4.8,24.89,24.89,0,0,0,1.72-7.37c0-.84,0-1.69,0-2.53C195.55,166.9,195.36,163.5,195.33,160.1Z" style="fill:#263238"></path><path d="M207,174,196.59,157.1s11.11-9.6,17.92-13.3c3.81-2.08,4.9.21,3.93,4C215.05,161.12,207,174,207,174Z" style="fill:#455a64"></path><path d="M199.62,156.05a132.35,132.35,0,0,1,9,14.15s-.09.1-.11.08c-2.68-3.72-7.49-11.51-9.09-14.13C199.43,156.1,199.58,156,199.62,156.05Z" style="fill:#263238"></path><path d="M205.25,171c.28.49,1.45,2.32,1.74,2.76.58-1.18,1.18-2.2,1.8-3.35.69-1.3,1.37-2.61,2-3.92,1.34-2.68,2.59-5.4,3.86-8.11,0,0,.12,0,.09,0-.54,1.57-1.15,3.11-1.81,4.64.4-.6.78-1.19,1.15-1.81,0,0,.07,0,0,0a21.29,21.29,0,0,1-1.47,2.37c-.44,1-.9,2-1.38,3-.63,1.28-1.28,2.55-2,3.8a34.34,34.34,0,0,1-2.29,3.88,33.48,33.48,0,0,1-1.92-3.25C205.09,171,205.2,171,205.25,171Z" style="fill:#263238"></path><path d="M219.66,141.79c-3.37,1.32-2.71,5.1.19,8.28s6.4,3.61,8,2.93,2.7-2.91.13-6.87C224.71,141.08,221.69,141,219.66,141.79Z" style="fill:#FFC727"></path><path d="M218.7,144.42c.16.83,3.84,6.33,7.6,6.32,1.23,0,1.5-6.69,1.5-6.69l.13-.49,1.85-6.84-7.89-5.58-1.14-.74s-.39,1.91-.84,4.29c0,.11,0,.22-.07.34s-.05.26-.07.38q-.12.54-.21,1.08c-.05.28-.1.54-.15.84s-.09.57-.14.86A45.94,45.94,0,0,0,218.7,144.42Z" style="fill:#f7a9a0"></path><path d="M219.91,134.69a14.2,14.2,0,0,0,8,8.87l1.85-6.84-7.89-5.58-1.14-.74S220.36,132.31,219.91,134.69Z" style="fill:#263238"></path><path d="M238.73,125.62c2.23,12.24-4.85,15-7.5,15.44-2.39.44-10.61,1.61-14.1-10.34s1.51-16.87,6.94-18.15S236.5,113.37,238.73,125.62Z" style="fill:#f7a9a0"></path><path d="M234,123.37a6.11,6.11,0,0,1-.86-.06,1.39,1.39,0,0,1-.87-.22.45.45,0,0,1-.07-.54,1.07,1.07,0,0,1,1-.4,1.59,1.59,0,0,1,1.09.42A.47.47,0,0,1,234,123.37Z" style="fill:#263238"></path><path d="M225.86,124.75a7.64,7.64,0,0,0,.8-.29,1.42,1.42,0,0,0,.77-.46.44.44,0,0,0-.08-.54,1.12,1.12,0,0,0-1.11-.1,1.64,1.64,0,0,0-.92.71A.48.48,0,0,0,225.86,124.75Z" style="fill:#263238"></path><path d="M228,127.47s-.05.06,0,.09c.2.82.3,1.8-.39,2.24a0,0,0,0,0,0,0C228.47,129.52,228.33,128.22,228,127.47Z" style="fill:#263238"></path><path d="M227.08,126.77c-1.36.19-.88,2.88.37,2.71S228.21,126.61,227.08,126.77Z" style="fill:#263238"></path><path d="M226.57,127c-.21.2-.39.51-.67.59s-.62-.15-.88-.39c0,0-.05,0,0,0,.08.52.37,1,.94,1s.8-.54.84-1.09C226.77,127.05,226.66,126.93,226.57,127Z" style="fill:#263238"></path><path d="M232.93,126.41s.07,0,.08.06c.07.85.3,1.8,1.09,2,0,0,0,0,0,0C233.16,128.49,232.87,127.22,232.93,126.41Z" style="fill:#263238"></path><path d="M233.58,125.44c1.34-.27,1.77,2.43.53,2.68S232.45,125.66,233.58,125.44Z" style="fill:#263238"></path><path d="M234.17,125.52c.24.11.49.34.75.32s.47-.36.61-.67c0,0,0,0,.05,0,.09.52,0,1.08-.47,1.26s-.84-.23-1.05-.72C234,125.64,234.07,125.48,234.17,125.52Z" style="fill:#263238"></path><path d="M229.05,134.1c.22.18.45.44.75.44a2.27,2.27,0,0,0,.9-.29s.05,0,0,0a1.13,1.13,0,0,1-1,.55c-.39,0-.6-.35-.73-.69C229,134.1,229,134.08,229.05,134.1Z" style="fill:#263238"></path><path d="M232.5,130.39s.35,1.23.44,1.83a3.24,3.24,0,0,1-3.25-.53c-.06,0,0-.12.08-.09a4.36,4.36,0,0,0,2.68.38c0-.18-.67-2.1-.58-2.12a5.3,5.3,0,0,1,1.39.12c-.65-2.6-1.72-5.07-2.33-7.66a.08.08,0,0,1,.15-.06,43,43,0,0,1,2.86,8.14C234,130.73,232.75,130.45,232.5,130.39Z" style="fill:#263238"></path><path d="M232.12,132.27a3.15,3.15,0,0,1-1.12,1.1,1.38,1.38,0,0,1-.83.16c-.63-.09-.72-.65-.66-1.14a3.27,3.27,0,0,1,.18-.76A4.06,4.06,0,0,0,232.12,132.27Z" style="fill:#263238"></path><path d="M231,133.37a1.38,1.38,0,0,1-.83.16c-.63-.09-.72-.65-.66-1.14A1.44,1.44,0,0,1,231,133.37Z" style="fill:#ff9abb"></path><path d="M217.89,131.83c3.08-.6,2.45-10.25,2.36-11.44.09.75.61,4.68.94,4.78a3,3,0,0,0,.94-.33h0a9.16,9.16,0,0,1-.11-1.41c0-.23.15.45.41,1.28.16-.08.34-.17.54-.25a11.43,11.43,0,0,1-.18-3c0-.39.4,1.26,1,2.66a37.77,37.77,0,0,1,7.87-2.73c.77-.15,1.43-.25,2-.32a19.1,19.1,0,0,1-.39-2.11,11.6,11.6,0,0,1,.83,2.07l.89-.08c-.18-1.64-1.38-4.12-1-3.76a11.78,11.78,0,0,1,2.22,3.76c1.15,0,1.49.21,1.47-.09a13.8,13.8,0,0,0-5.49-7.77c-4.45-3-12.31-2.69-15.75,3.61,0,0-3.21,2.91-3.17,6.77S216.12,132.18,217.89,131.83Z" style="fill:#263238"></path><path d="M219.24,130.89s-3.07-3.62-4.73-2.49.89,6.55,3,7.12a2.11,2.11,0,0,0,2.7-1.39Z" style="fill:#f7a9a0"></path><path d="M215.28,129.93s0,0,0,.06a5.34,5.34,0,0,1,3.05,3.06,1.17,1.17,0,0,0-1.77-.16.05.05,0,0,0,.05.08,1.29,1.29,0,0,1,1.46.32,5.66,5.66,0,0,1,.79,1.08c.08.12.31,0,.24-.11v0C219,132.38,217.28,129.93,215.28,129.93Z" style="fill:#263238"></path><path d="M218.69,134.86a.5.5,0,0,1-.49.51.51.51,0,1,1,0-1A.5.5,0,0,1,218.69,134.86Z" style="fill:#fff"></path><path d="M217.43,134.05a.35.35,0,0,1-.35.37.35.35,0,0,1-.37-.35.36.36,0,0,1,.35-.38A.37.37,0,0,1,217.43,134.05Z" style="fill:#fff"></path><path d="M214.5,129.81l-.75-.05a.26.26,0,0,1-.25-.28h0a.27.27,0,0,1,.29-.25l.75.05a.28.28,0,0,1,.25.29h0A.27.27,0,0,1,214.5,129.81Z" style="fill:#FFC727"></path><path d="M214.54,130.59l-.74.11a.26.26,0,0,1-.3-.22h0a.27.27,0,0,1,.22-.31l.75-.11a.27.27,0,0,1,.3.23h0A.27.27,0,0,1,214.54,130.59Z" style="fill:#FFC727"></path></g></svg>